<svg width="44" height="41" viewBox="0 0 44 41" fill="none" xmlns="http://www.w3.org/2000/svg">
<path d="M35.9452 12.6308L42.6651 19.0593C43.2401 19.6094 43.2861 20.5524 42.7341 21.1255C42.4697 21.3993 42.1076 21.557 41.7271 21.5642C41.3466 21.5714 40.9788 21.4274 40.7043 21.1638L22.0609 3.35033C21.9271 3.22206 21.7489 3.15045 21.5635 3.15045C21.3782 3.15045 21.2 3.22206 21.0662 3.35033L2.42465 21.1638C2.28411 21.2993 2.11742 21.4047 1.93476 21.4736C1.75211 21.5425 1.55732 21.5734 1.36231 21.5644C1.16731 21.5554 0.976182 21.5068 0.800618 21.4214C0.625054 21.3361 0.468741 21.2158 0.341235 21.068C0.101325 20.781 -0.0198035 20.4131 0.00264417 20.0397C0.0250918 19.6663 0.189418 19.3156 0.461985 19.0593L19.5712 0.77625C20.058 0.28175 20.7806 0 21.5607 0C22.3427 0 23.0672 0.28175 23.554 0.774333L28.7577 5.75V2.875C28.7577 2.49375 28.9092 2.12812 29.1788 1.85853C29.4484 1.58895 29.814 1.4375 30.1952 1.4375H34.5077C34.889 1.4375 35.2546 1.58895 35.5242 1.85853C35.7938 2.12812 35.9452 2.49375 35.9452 2.875V12.6308Z" fill="white"/>
<path d="M21.5645 6.02063C21.7494 6.02063 21.9272 6.09189 22.0609 6.2196L38.596 22.0206C38.6663 22.0876 38.7223 22.1682 38.7605 22.2575C38.7987 22.3468 38.8184 22.4429 38.8183 22.54V37.3693C38.8183 38.1318 38.5154 38.863 37.9762 39.4022C37.4371 39.9414 36.7058 40.2443 35.9433 40.2443H27.3126C26.9313 40.2443 26.5657 40.0928 26.2961 39.8232C26.0265 39.5536 25.8751 39.188 25.8751 38.8068V26.588C25.8751 26.3974 25.7993 26.2146 25.6645 26.0798C25.5298 25.945 25.3469 25.8693 25.1563 25.8693H17.9688C17.7782 25.8693 17.5954 25.945 17.4606 26.0798C17.3258 26.2146 17.2501 26.3974 17.2501 26.588V38.8068C17.2501 39.188 17.0986 39.5536 16.829 39.8232C16.5594 40.0928 16.1938 40.2443 15.8126 40.2443H7.17798C6.41548 40.2443 5.68421 39.9414 5.14505 39.4022C4.60588 38.863 4.30298 38.1318 4.30298 37.3693L4.30681 22.54C4.3065 22.443 4.32588 22.347 4.36376 22.2577C4.40165 22.1684 4.45726 22.0878 4.52723 22.0206L21.0681 6.2196C21.2018 6.09189 21.3796 6.02063 21.5645 6.02063Z" fill="white"/>
</svg>
