<svg width="22" height="22" viewBox="0 0 22 22" fill="none" xmlns="http://www.w3.org/2000/svg">
<path id="check-icon" d="M10.6667 0C4.78933 0 0 4.78933 0 10.6667C0 16.544 4.78933 21.3333 10.6667 21.3333C16.544 21.3333 21.3333 16.544 21.3333 10.6667C21.3333 4.78933 16.544 0 10.6667 0ZM15.7653 8.21333L9.71733 14.2613C9.568 14.4107 9.36533 14.496 9.152 14.496C8.93867 14.496 8.736 14.4107 8.58667 14.2613L5.568 11.2427C5.25867 10.9333 5.25867 10.4213 5.568 10.112C5.87733 9.80267 6.38933 9.80267 6.69867 10.112L9.152 12.5653L14.6347 7.08267C14.944 6.77333 15.456 6.77333 15.7653 7.08267C16.0747 7.392 16.0747 7.89333 15.7653 8.21333Z" fill="#18C964"/>
</svg>
