<svg width="15" height="15" viewBox="0 0 15 15" fill="none" xmlns="http://www.w3.org/2000/svg">
<path id="close-icon" d="M9.26107 7.49778L14.6307 2.14052C14.7472 2.02408 14.8395 1.88586 14.9025 1.73373C14.9655 1.5816 14.998 1.41855 14.998 1.25389C14.998 1.08922 14.9655 0.926173 14.9025 0.774045C14.8395 0.621916 14.7472 0.483689 14.6307 0.367255C14.5143 0.25082 14.3761 0.15846 14.2239 0.0954463C14.0718 0.0324325 13.9088 -2.45367e-09 13.7441 0C13.5795 2.45367e-09 13.4164 0.0324325 13.2643 0.0954463C13.1122 0.15846 12.9739 0.25082 12.8575 0.367255L7.50032 5.737L2.14314 0.367255C1.908 0.132105 1.58907 -2.4777e-09 1.25652 0C0.923978 2.4777e-09 0.605052 0.132105 0.369906 0.367255C0.13476 0.602404 0.00265633 0.921335 0.00265632 1.25389C0.00265632 1.58644 0.13476 1.90537 0.369906 2.14052L5.73957 7.49778L0.369906 12.855C0.252711 12.971 0.159677 13.1091 0.0961844 13.2613C0.0326916 13.4135 0 13.5768 0 13.7417C0 13.9066 0.0326916 14.0698 0.0961844 14.222C0.159677 14.3742 0.252711 14.5123 0.369906 14.6283C0.485994 14.7453 0.624108 14.8382 0.776281 14.9016C0.928454 14.965 1.09167 14.9977 1.25652 14.9977C1.42138 14.9977 1.5846 14.965 1.73677 14.9016C1.88894 14.8382 2.02706 14.7453 2.14314 14.6283L7.50032 9.25855L12.8575 14.6283C13.0028 14.7754 13.1823 14.8842 13.38 14.9449C13.5776 15.0056 13.7872 15.0163 13.9901 14.9761C14.1929 14.9359 14.3826 14.846 14.5421 14.7145C14.7016 14.5829 14.8261 14.4139 14.9042 14.2224C14.9996 13.993 15.0245 13.7404 14.9755 13.4968C14.9266 13.2532 14.8061 13.0298 14.6295 12.855L9.26107 7.49778Z" fill="#130000" fill-opacity="0.8"/>
</svg>
