<svg width="37" height="36" viewBox="0 0 37 36" fill="none" xmlns="http://www.w3.org/2000/svg">
<g id="goods-icon">
<path d="M12.0714 0H0.5V11.5714H3.07143V2.57143H12.0714V0Z" fill="white"/>
<path d="M0.5 24.4286V36H12.0714V33.4286H3.07143V24.4286H0.5Z" fill="white"/>
<path d="M36.5 0V11.5714H33.9286V2.57143H24.9286V0H36.5Z" fill="white"/>
<path d="M24.9286 36H36.5V24.4286H33.9286V33.4286H24.9286V36Z" fill="white"/>
<path fill-rule="evenodd" clip-rule="evenodd" d="M19.1291 4.02858L30.7006 10.4571C30.8995 10.5687 31.0651 10.7312 31.1805 10.9279C31.2958 11.1247 31.3568 11.3485 31.3571 11.5766V24.4337C31.3593 24.6588 31.3023 24.8805 31.1919 25.0766C31.0815 25.2728 30.9215 25.4365 30.728 25.5514L19.1566 31.98C18.9611 32.0929 18.7394 32.1523 18.5137 32.1523C18.288 32.1523 18.0663 32.0929 17.8709 31.98L6.29942 25.5514C6.10079 25.44 5.93533 25.2778 5.81997 25.0814C5.7046 24.885 5.64348 24.6615 5.64285 24.4337V11.5766C5.6404 11.3512 5.69724 11.1292 5.80766 10.9327C5.91808 10.7362 6.07821 10.5722 6.27199 10.4571L17.8434 4.02858C18.0389 3.91573 18.2606 3.85632 18.4863 3.85632C18.712 3.85632 18.9337 3.91573 19.1291 4.02858ZM27.4228 11.5766L18.5 6.61372L9.57714 11.5766L18.5 16.5394L27.4228 11.5766ZM17.2143 18.7629L8.21428 13.7623V23.6743L17.2143 28.6766V18.7629ZM19.7857 18.7629V28.6766L28.7857 23.6743V13.7623L19.7857 18.7629Z" fill="white"/>
</g>
</svg>
