<svg width="17" height="17" viewBox="0 0 17 17" fill="none" xmlns="http://www.w3.org/2000/svg">
<path id="google-icon" d="M16.504 6.96148C16.6034 7.53129 16.6526 8.1096 16.6518 8.68791C16.6518 11.2712 15.7279 13.4562 14.1212 14.9346H14.1237C12.7183 16.2331 10.7863 16.9846 8.4952 16.9846C6.24297 16.9846 4.08299 16.0899 2.49043 14.4974C0.897867 12.9048 0.00317383 10.7448 0.00317383 8.49259C0.00317383 6.24037 0.897867 4.08039 2.49043 2.48782C4.08299 0.895259 6.24297 0.000566597 8.4952 0.000566597C10.6032 -0.0242591 12.6391 0.767567 14.1764 2.21019L11.7519 4.63466C10.8755 3.79925 9.70584 3.34177 8.4952 3.36086C6.27963 3.36086 4.3978 4.85546 3.72693 6.86807C3.37118 7.92274 3.37118 9.06499 3.72693 10.1197H3.73032C4.40374 12.1289 6.28303 13.6235 8.4986 13.6235C9.64247 13.6235 10.6258 13.3305 11.3876 12.8125H11.3842C11.8268 12.5195 12.2056 12.1398 12.4975 11.6964C12.7894 11.253 12.9884 10.755 13.0826 10.2326H8.4952V6.96318H16.504V6.96148Z" fill="#130000" fill-opacity="0.8"/>
</svg>
