<svg width="73" height="129" viewBox="0 0 73 129" fill="none" xmlns="http://www.w3.org/2000/svg">
<g id="halal-icon" clip-path="url(#clip0_200_951)">
<path id="path4" d="M42.1296 6.67957L39.334 10.2645L39.2901 90.7882C39.2901 91.0404 39.0818 91.2596 38.8187 91.2596L15.1933 91.3364C15.1933 91.3364 14.382 90.7882 14.382 89.659C14.382 88.5298 14.3053 87.5212 14.3053 87.5103L9.47058 87.3897C9.47058 87.3897 8.34138 94.9432 14.0093 95.7106C14.0093 95.7106 14.0093 95.7106 14.0203 95.7106H58.9688C59.0236 95.7106 59.1113 95.6887 59.1662 95.6778C59.9007 95.5681 60.712 95.2392 61.6219 94.2526C62.8498 92.926 62.9704 91.8188 63.0252 90.7553C63.0032 87.4883 62.7621 84.1665 62.8607 80.7132C62.8717 80.3404 63.1019 79.8471 63.376 79.6059L63.5295 79.4743C63.5404 79.4634 63.5514 79.4524 63.5624 79.4524C63.9241 79.1893 69.4276 75.133 71.4777 66.231C73.747 56.3971 68.4519 47.3306 66.1825 43.5484C56.5789 27.5313 49.5516 16.7108 49.5516 16.7108V81.36H54.463V33.3417C54.463 33.3417 58.618 39.0097 64.6696 50.7292C65.0204 51.3979 68.8246 58.6664 66.1825 66.9874C64.8779 71.0986 60.1309 76.0648 60.1309 76.0648C60.1309 76.0648 58.618 77.194 58.618 79.4634V89.2863C58.618 89.3082 58.9908 91.1719 57.1051 91.1719H44.2564V10.1439L42.1296 6.67957Z" fill="#652672"/>
<path id="path6" d="M1.97177 128.622H0.458862V123.326H1.97177V128.622Z" fill="#652672"/>
<path id="path8" d="M11.4659 128.622H10.0078L8.28659 126.067C8.20984 125.958 8.1331 125.837 8.05636 125.738C8.05636 125.892 8.05636 126.056 8.05636 126.221V128.622H6.54346V123.326H7.96866L9.70082 125.694C9.7666 125.793 9.84334 125.892 9.90912 125.99C9.92008 125.826 9.93104 125.673 9.95297 125.497V123.326H11.4659V128.622Z" fill="#652672"/>
<path id="path10" d="M17.5504 128.72C17.1009 128.72 16.6843 128.698 16.3225 128.665L15.9827 128.633V123.48L16.3116 123.436C16.7939 123.37 17.2763 123.337 17.7587 123.337C18.7782 123.337 19.5237 123.557 20.05 123.995C20.6091 124.456 20.9051 125.102 20.9051 125.925C20.9051 126.769 20.6091 127.481 20.05 127.975C19.4908 128.457 18.6357 128.72 17.5504 128.72ZM17.4956 127.481C17.6162 127.481 17.7258 127.481 17.7806 127.481C18.9646 127.481 19.5566 126.955 19.5566 125.925C19.5566 125.519 19.447 125.19 19.2277 124.971C18.9537 124.697 18.4932 124.543 17.8902 124.543C17.7368 124.543 17.6052 124.554 17.5065 124.554V127.481H17.4956Z" fill="#652672"/>
<path id="path12" d="M27.7131 128.797C26.1454 128.797 25.0601 127.69 25.0601 126.111C25.0601 124.478 26.1783 123.337 27.7899 123.337C29.3576 123.337 30.4429 124.445 30.4429 126.023C30.4429 127.679 29.3466 128.797 27.7131 128.797ZM27.757 124.565C26.8361 124.565 26.5072 125.388 26.5072 126.089C26.5072 126.791 26.8909 127.558 27.746 127.558C28.6121 127.558 28.9958 126.802 28.9958 126.045C28.9958 125.333 28.6011 124.565 27.757 124.565Z" fill="#652672"/>
<path id="path14" d="M39.5642 128.622H38.3364L36.6152 126.067C36.5713 126.001 36.5275 125.936 36.4836 125.87C36.4946 125.958 36.5165 126.045 36.5384 126.144L36.5494 126.221V128.622H35.0365V123.326H36.3082L38.0404 125.694C38.0623 125.727 38.0842 125.749 38.0952 125.782C38.0842 125.727 38.0733 125.662 38.0623 125.607L38.0513 125.53V123.337H39.5642V128.622Z" fill="#652672"/>
<path id="polygon16" d="M44.5524 123.337H47.9509V124.467H45.6816V125.223H47.9509V126.363H45.6816V127.196H47.9509V128.622H44.5524V123.337Z" fill="#652672"/>
<path id="path18" d="M54.2875 128.786C53.7394 128.786 53.1474 128.644 52.7966 128.446L52.5334 128.293L52.9391 127.076L53.3337 127.295C53.6188 127.449 53.9915 127.547 54.3204 127.547C54.4849 127.547 55.0001 127.514 55.0001 127.153C55.0001 127.021 55.0001 126.846 54.2985 126.604C53.9148 126.484 52.7089 126.1 52.7089 124.96C52.7089 124.028 53.553 123.348 54.7261 123.348C55.3948 123.348 55.8224 123.513 56.0197 123.611L56.3157 123.765L55.8662 124.949L55.4935 124.763C55.3619 124.697 55.0769 124.587 54.6932 124.587C54.2985 124.587 54.1121 124.741 54.1121 124.894C54.1121 125.015 54.1121 125.157 54.8686 125.42C55.5921 125.673 56.4144 126.089 56.4144 127.12C56.4363 127.942 55.7676 128.786 54.2875 128.786Z" fill="#652672"/>
<path id="path20" d="M62.2468 128.622H60.7339V123.326H62.2468V128.622Z" fill="#652672"/>
<path id="path22" d="M71.3461 128.622H69.9209L69.3508 127.109H67.9805L67.4213 128.622H66.0181L68.0243 123.326H69.3289L71.3461 128.622ZM68.3203 126.221H69.0219L68.6711 125.289L68.3203 126.221Z" fill="#652672"/>
<g id="g30">
<path id="path28" d="M70.8966 118.316V118.602C70.6116 118.602 70.48 118.503 70.3485 118.371H61.3697H60.4269C60.4269 117.604 60.997 117.9 61.3697 116.562V105.665C60.997 104.328 60.4159 104.624 60.4269 103.856H65.7111C65.7111 104.7 65.0204 104.262 64.6587 106.115V115.258L70.0744 115.203C71.1817 115.006 71.1159 113.964 71.7298 114.085L70.8966 118.316Z" fill="#652672"/>
</g>
<g id="g34">
<path id="path32" d="M42.1186 118.316V118.602C41.8335 118.602 41.702 118.503 41.5704 118.371H32.5917H31.6488C31.6488 117.604 32.2189 117.9 32.5917 116.562V105.665C32.2189 104.328 31.6379 104.624 31.6488 103.856H36.944C36.944 104.7 36.2533 104.262 35.8915 106.115V115.258L41.3073 115.203C42.4146 115.006 42.3488 113.964 42.9627 114.085L42.1186 118.316Z" fill="#652672"/>
</g>
<g id="g38">
<path id="path36" d="M13.9435 118.163H8.64835C8.64835 117.363 9.29517 117.735 9.65695 116.091V112.254L4.35083 112.802L4.3289 116.179C4.69068 117.724 5.32654 117.374 5.32654 118.163H0.031379C0.031379 117.341 0.711089 117.757 1.06191 115.981V106.016C0.711089 104.24 0.0204159 104.645 0.031379 103.834H5.32654C5.32654 104.613 4.70165 104.273 4.33987 105.797L4.35083 109.963L9.70081 109.393L9.66792 105.906C9.30613 104.251 8.64835 104.635 8.65931 103.834H13.9545C13.9545 104.645 13.2748 104.24 12.9239 105.994V115.992C13.2748 117.757 13.9545 117.352 13.9435 118.163Z" fill="#652672"/>
</g>
<path id="path40" d="M58.8482 117.735L53.0049 103.834L51.0097 103.845V103.834H49.8585C48.4004 103.834 49.8695 104.218 49.8256 104.996L45.0677 117.483C44.4428 118.273 44.1687 117.79 44.1687 118.393H44.6949H48.0167H48.6855C48.6855 118.02 48.2579 118.163 48.4443 117.417L49.2117 115.609L54.3095 115.313L55.0221 117.483C55.2414 118.295 54.7371 117.834 54.7152 118.404H55.4058H58.2782H58.8592H59.4074C59.4622 118.064 59.1004 117.966 58.8482 117.735ZM50.2203 113.043L51.7003 109.491L53.1913 112.802L50.2203 113.043Z" fill="#652672"/>
<path id="path42" d="M29.8838 117.735L24.0405 103.834L22.0452 103.845V103.834H20.8941C19.436 103.834 20.905 104.218 20.8612 104.996L16.1032 117.483C15.4783 118.273 15.2042 117.79 15.2042 118.393H15.7305H19.0523H19.721C19.721 118.02 19.2934 118.163 19.4798 117.417L20.2472 115.609L25.3451 115.313L26.0577 117.483C26.2769 118.295 25.7726 117.834 25.7507 118.404H26.4414H29.3137H29.8947H30.4429C30.4867 118.064 30.1359 117.966 29.8838 117.735ZM21.2558 113.043L22.7359 109.491L24.2268 112.802L21.2558 113.043Z" fill="#652672"/>
<path id="polygon44" d="M27.9982 81.634H33.0083V20.6245L27.9982 27.9698V81.634Z" fill="#652672"/>
<path id="path46" d="M38.8077 1.99823C33.5235 9.9026 28.2284 17.807 22.9442 25.7113C22.9442 44.3047 22.9442 62.909 22.9442 81.5024C19.2606 81.5791 15.5879 81.6449 11.9044 81.7217C11.3014 81.4695 10.5011 81.0858 9.62403 80.5377C9.34996 80.3622 8.02343 79.5181 6.54341 78.0381C5.14014 76.6238 4.30695 75.3412 4.07672 74.9684C3.38605 73.8721 3.03523 73.0389 2.44323 71.6247C1.48944 69.3444 1.17151 67.8753 1.06188 67.3491C0.776839 65.9239 0.722024 64.8714 0.656245 63.5449C0.546615 61.2207 0.678172 59.4995 0.700098 59.1158C0.732987 58.7431 0.88647 56.9232 1.34692 54.7964C2.16915 51.058 3.52857 48.2185 4.69065 45.8176C6.35704 42.3971 7.9138 39.9743 9.67885 37.2555C11.3343 34.7011 12.8252 32.64 13.8887 31.2038C13.8887 34.0542 13.8996 36.9156 13.8996 39.766C12.9897 41.0048 11.9153 42.5835 10.8519 44.513C10.4353 45.2585 9.32803 47.2976 8.14402 50.3015C6.53245 54.4127 5.62252 56.7478 5.39229 60.1025C5.29362 61.5715 5.11821 64.6631 6.42282 68.27C7.21216 70.4407 8.2098 71.9207 8.54965 72.3921C10.0954 74.5737 11.8605 75.9332 13.0226 76.7006C14.7548 76.7006 16.4979 76.7006 18.23 76.7006C18.1972 59.2912 18.1643 41.8928 18.1314 24.4835C26.8141 11.1962 33.2275 1.50489 33.8853 0.748443C34.3677 0.178363 34.9268 0.0687324 34.9268 0.0687324C35.2995 -0.0737875 35.6723 0.0358432 35.9902 0.123548C36.4068 0.244141 36.6918 0.45244 37.2619 0.836147C37.6237 1.0883 38.2048 1.48297 38.8077 1.99823Z" fill="#652672"/>
</g>
<defs>
<clipPath id="clip0_200_951">
<rect width="72" height="128.797" fill="white" transform="translate(0.03125)"/>
</clipPath>
</defs>
</svg>
