<svg width="18" height="17" viewBox="0 0 18 17" fill="none" xmlns="http://www.w3.org/2000/svg">
<path id="ig-icon" d="M8.99792 0C6.69311 0 6.40352 0.01104 5.49824 0.0509538C4.59296 0.0934153 3.97557 0.235237 3.43546 0.445846C2.86875 0.659107 2.35546 0.993572 1.93147 1.42586C1.49946 1.85007 1.16504 2.3633 0.951462 2.92985C0.740852 3.46911 0.598181 4.0865 0.556569 4.98923C0.516655 5.89706 0.505615 6.1858 0.505615 8.49316C0.505615 10.7988 0.516655 11.0876 0.556569 11.9928C0.599031 12.8981 0.740852 13.5147 0.951462 14.0548C1.16506 14.6213 1.49948 15.1345 1.93147 15.5588C2.35494 15.9913 2.86801 16.3258 3.43461 16.5388C3.97557 16.7485 4.59126 16.8921 5.4957 16.9337C6.40267 16.9736 6.69141 16.9846 8.99792 16.9846C11.3044 16.9846 11.5923 16.9744 12.4985 16.9337C13.402 16.8912 14.0211 16.7485 14.5621 16.5388C15.1285 16.3255 15.6415 15.991 16.0652 15.5588C16.4969 15.1344 16.831 14.6212 17.0444 14.0548C17.2533 13.5147 17.3968 12.8973 17.4393 11.9928C17.4792 11.0876 17.4902 10.7988 17.4902 8.49231C17.4902 6.1858 17.48 5.89706 17.4393 4.99008C17.3968 4.0865 17.2533 3.46911 17.0444 2.92985C16.8309 2.36327 16.4964 1.85004 16.0644 1.42586C15.6405 0.993401 15.1272 0.65891 14.5604 0.445846C14.0194 0.235237 13.4012 0.0925661 12.4976 0.0509538C11.5915 0.01104 11.3036 0 8.99623 0H8.99792ZM8.23701 1.53116H8.99792C11.2654 1.53116 11.5346 1.53796 12.4288 1.57957C13.2568 1.61694 13.7069 1.75621 14.0067 1.8717C14.4024 2.02542 14.6861 2.21055 14.9833 2.50693C15.2805 2.80416 15.464 3.08695 15.6177 3.48355C15.7349 3.78247 15.8724 4.23257 15.9098 5.06057C15.9514 5.95481 15.9599 6.22401 15.9599 8.49061C15.9599 10.7564 15.9514 11.0264 15.9098 11.9215C15.8724 12.7487 15.734 13.1979 15.6177 13.4977C15.4817 13.8664 15.2646 14.1999 14.9825 14.4734C14.7085 14.7554 14.3748 14.9722 14.0058 15.1078C13.7086 15.2242 13.2585 15.3626 12.4288 15.4008C11.5346 15.4407 11.2654 15.4509 8.99792 15.4509C6.73048 15.4509 6.46127 15.4416 5.56618 15.4008C4.73818 15.3626 4.28894 15.2242 3.99001 15.1078C3.62116 14.972 3.28744 14.7552 3.01339 14.4734C2.73076 14.1996 2.51312 13.8659 2.37647 13.4968C2.26098 13.1979 2.1217 12.7478 2.08434 11.9198C2.04442 11.0247 2.03593 10.7564 2.03593 8.48806C2.03593 6.22062 2.04442 5.95311 2.08434 5.05802C2.12255 4.23002 2.26098 3.77993 2.37732 3.481C2.53103 3.08526 2.71616 2.80161 3.01339 2.50438C3.28722 2.22214 3.62099 2.00505 3.99001 1.86916C4.28894 1.75281 4.73818 1.61439 5.56618 1.57617C6.35002 1.5405 6.6532 1.52946 8.23616 1.52862V1.53116H8.23701ZM13.532 2.94089C13.2617 2.94089 13.0025 3.04825 12.8114 3.23937C12.6203 3.43048 12.5129 3.68969 12.5129 3.95996C12.5129 4.23024 12.6203 4.48945 12.8114 4.68056C13.0025 4.87167 13.2617 4.97904 13.532 4.97904C13.8022 4.97904 14.0615 4.87167 14.2526 4.68056C14.4437 4.48945 14.551 4.23024 14.551 3.95996C14.551 3.68969 14.4437 3.43048 14.2526 3.23937C14.0615 3.04825 13.8022 2.94089 13.532 2.94089ZM8.99792 4.13151C7.84114 4.11349 6.72458 4.55574 5.89387 5.36097C5.06316 6.16619 4.58635 7.26844 4.56834 8.42522C4.55032 9.582 4.99257 10.6986 5.79779 11.5293C6.60302 12.36 7.70527 12.8368 8.86205 12.8548C10.0188 12.8728 11.1354 12.4306 11.9661 11.6254C12.7968 10.8201 13.2736 9.71788 13.2916 8.5611C13.3097 7.40432 12.8674 6.28775 12.0622 5.45705C11.257 4.62634 10.1547 4.14953 8.99792 4.13151ZM8.99792 5.66097C9.36974 5.66097 9.73792 5.73421 10.0814 5.8765C10.4249 6.01878 10.7371 6.22734 11 6.49025C11.2629 6.75317 11.4714 7.06529 11.6137 7.4088C11.756 7.75232 11.8293 8.12049 11.8293 8.49231C11.8293 8.86413 11.756 9.2323 11.6137 9.57581C11.4714 9.91933 11.2629 10.2315 11 10.4944C10.7371 10.7573 10.4249 10.9658 10.0814 11.1081C9.73792 11.2504 9.36974 11.3236 8.99792 11.3236C8.24701 11.3236 7.52685 11.0253 6.99587 10.4944C6.46489 9.96339 6.16659 9.24323 6.16659 8.49231C6.16659 7.74139 6.46489 7.02123 6.99587 6.49025C7.52685 5.95927 8.24701 5.66097 8.99792 5.66097Z" fill="#130000" fill-opacity="0.8"/>
</svg>
