<svg width="125" height="116" viewBox="0 0 125 116" fill="none" xmlns="http://www.w3.org/2000/svg">
<g id="iso-icon">
<g clip-path="url(#clip0_200_940)">
<path id="Vector" d="M125 0H0V115.051H125V0Z" fill="white"/>
<g id="Group">
<path id="Vector_2" d="M0 57.5254V115.051H62.5H125V57.5254V-4.7626e-05H62.5H0V57.5254ZM64.8285 13.2726C67.8133 13.3784 71.3696 13.9606 74.5449 14.8708C84.3036 17.6651 92.6651 23.7298 98.677 32.3454C99.0051 32.8217 99.2803 33.2663 99.2803 33.3298C99.2803 33.4144 98.804 33.4462 97.7562 33.4462H96.232L95.7451 32.7582C94.4009 30.8954 91.776 27.9741 90.0508 26.4394L89.3099 25.7832L87.5 26.2383C84.2612 27.0321 80.6943 27.6778 77.138 28.1117C76.3336 28.2176 75.6774 28.334 75.6774 28.3658C75.6774 28.4081 75.8256 28.9161 76.0055 29.4877C76.4183 30.853 77.0534 33.1392 77.0534 33.3086C77.0534 33.4144 76.7252 33.4462 75.7303 33.4462H74.4179L74.2379 32.8323C74.1533 32.5042 73.9733 31.8903 73.8675 31.4881C73.5288 30.3238 73.0102 28.7468 72.9255 28.6515C72.8832 28.5986 72.1846 28.6092 71.3802 28.6727C70.5864 28.7362 68.3319 28.842 66.3844 28.9161C62.6482 29.0431 57.3878 28.9267 53.8738 28.6304C52.9742 28.5563 52.2015 28.5245 52.1592 28.5669C52.0745 28.6515 51.3125 31.033 50.9526 32.3772L50.6668 33.4462H49.365C48.1689 33.4462 48.0525 33.425 48.0525 33.2557C48.0525 33.0228 48.6558 30.779 49.1109 29.3289C49.2909 28.7785 49.3967 28.2917 49.3438 28.2493C49.3014 28.2176 48.7722 28.1223 48.1583 28.0588C45.2688 27.7307 41.0775 26.958 37.8705 26.1748L35.8912 25.6879L35.3302 26.1642C33.6262 27.6249 30.8848 30.6308 29.4771 32.5677L28.8421 33.4462H27.2862C26.4183 33.4462 25.7197 33.4144 25.7197 33.3827C25.7197 33.2451 27.4132 30.8954 28.3658 29.6888C32.4301 24.5978 37.4047 20.5969 43.2896 17.6862C47.7773 15.4635 52.1592 14.1617 57.3137 13.4949C58.6156 13.3255 62.0661 13.1456 62.8705 13.1985C63.0716 13.2091 63.9606 13.2514 64.8285 13.2726ZM59.8539 37.4788C61.5051 37.6799 62.4365 37.7222 66.8713 37.754L71.9729 37.7963V43.5118V49.2167H67.4217H62.881L62.8493 47.9784L62.8175 46.7294L62.1825 46.4754C60.362 45.7557 57.917 45.3641 55.1969 45.3535C52.5191 45.3535 51.3125 45.5863 50.1588 46.359C48.9733 47.1316 48.804 48.7087 49.7883 49.6824C50.815 50.7197 52.0745 51.0478 57.6842 51.7464C62.5318 52.3603 64.4052 52.7519 66.7549 53.6727C67.8874 54.1172 69.3163 54.9534 70.2053 55.7049C71.5178 56.7951 72.5974 58.5944 73.0948 60.4995C73.4653 61.9178 73.5711 64.6486 73.3065 66.0986C72.8514 68.5753 71.92 70.3535 70.2159 71.9729C68.3743 73.7299 66.0034 74.8835 62.7329 75.6139C59.1236 76.4288 54.0114 76.5559 48.8887 75.9737C47.1317 75.7832 46.1156 75.7409 41.8925 75.7091L36.939 75.6668V70.0042V64.3522H41.4903H46.0415V65.5165V66.6807L46.4543 66.8924C47.7985 67.5698 50.561 68.0673 53.4716 68.1308C58.4886 68.2578 60.743 67.3687 60.7536 65.2519C60.7536 64.4263 60.5208 63.9818 59.8222 63.4949C58.8061 62.7752 57.3772 62.447 52.8154 61.8649C47.3328 61.1558 45.163 60.6583 42.7815 59.5364C38.9818 57.7371 37.1084 54.9957 36.7274 50.6774C36.5157 48.3912 36.8861 46.2531 37.7858 44.3903C39.8074 40.2095 44.4327 37.8069 51.5982 37.2142C53.0377 37.0978 58.0123 37.2565 59.8539 37.4788ZM99.9153 37.4153C104.636 38.1244 108.393 39.9026 111.304 42.8027C114.85 46.3484 116.564 50.8996 116.554 56.7315C116.554 59.5258 116.247 61.6215 115.517 63.823C113.029 71.2955 106.583 75.762 97.5127 76.3018C92.7604 76.577 87.9234 75.635 84.4623 73.751C82.1232 72.4809 79.6359 70.2476 78.2917 68.2155C76.6617 65.7387 75.6562 62.9022 75.254 59.5893C75.0953 58.2663 75.127 54.9216 75.307 53.5351C76.1749 46.9729 79.6888 41.9983 85.3408 39.3205C87.7011 38.2091 90.2519 37.5423 93.406 37.2142C94.4644 37.1083 98.7511 37.2354 99.9153 37.4153ZM34.1871 42.6016V47.3116H31.1177H28.0483V56.8374V66.3632H31.1177H34.1871V71.0732V75.7832L21.9941 75.762L9.79043 75.7303L9.75868 71.0415L9.73751 66.3632H12.8069H15.8764V56.8374V47.3116L12.8387 47.2904L9.79043 47.2586L9.75868 42.5698L9.73751 37.8916H21.9623H34.1871V42.6016ZM29.2125 80.726C30.5567 82.6312 33.4992 85.9017 35.1609 87.3412L35.7642 87.8598L37.4894 87.4365C40.8023 86.6215 44.0834 86.0182 47.4704 85.6054C48.5182 85.4784 49.3861 85.362 49.4073 85.3514C49.4285 85.3408 49.2909 84.8645 49.1109 84.2824C48.677 82.917 48.0525 80.652 48.0525 80.4191C48.0525 80.2498 48.1795 80.2286 49.365 80.2286H50.6668L50.9526 81.2553C51.1114 81.8268 51.4395 82.9276 51.6723 83.7108L52.1169 85.1185L52.7096 85.055C56.1283 84.7057 65.0402 84.6105 69.221 84.8857C70.5335 84.9703 71.9094 85.0444 72.2799 85.0444H72.9678L73.3277 83.9331C73.5288 83.3192 73.8463 82.2502 74.0368 81.5516L74.3861 80.2815L75.7197 80.2498C76.6088 80.2286 77.0534 80.2603 77.0534 80.3344C77.0534 80.5144 76.1325 83.8167 75.8467 84.6422L75.5821 85.4043L75.9208 85.4572C76.1114 85.489 76.8523 85.5948 77.5826 85.6795C80.6838 86.0711 84.5364 86.8014 87.4577 87.5423C88.9712 87.9339 89.1512 87.9551 89.3628 87.8175C89.8709 87.4788 92.1571 85.2032 93.2578 83.9648C93.8929 83.2345 94.8243 82.102 95.3218 81.4352L96.2426 80.2286H97.7562C98.5923 80.2286 99.2803 80.2709 99.2803 80.3133C99.2803 80.4509 97.8832 82.4619 97.0682 83.5097C89.765 92.9191 78.9797 98.931 67.0512 100.254C65.0826 100.466 59.3882 100.434 57.5254 100.201C47.8408 98.9521 39.6804 95.1418 32.5995 88.5584C30.1651 86.2934 27.1169 82.6312 25.7832 80.3556C25.7197 80.2603 26.0478 80.2286 27.2862 80.2286H28.8633L29.2125 80.726Z" fill="#E30613"/>
<path id="Vector_3" d="M61.0605 15.9078C58.6156 16.744 56.2871 19.39 54.149 23.7613C53.6622 24.7457 53.2388 25.6453 53.207 25.7406C53.1541 25.8888 53.2388 25.9311 53.6939 25.984C56.3188 26.2698 63.1986 26.418 66.9454 26.2592C71.4437 26.0687 71.8671 26.0369 71.8671 25.8358C71.8671 25.5712 70.2794 22.3854 69.602 21.3058C68.2261 19.0831 66.8607 17.5378 65.4636 16.617C63.9924 15.6644 62.5 15.4209 61.0605 15.9078Z" fill="#E30613"/>
<path id="Vector_4" d="M55.1439 16.321C49.4708 17.517 44.8349 19.4327 39.9873 22.608C38.8018 23.3807 38.4208 23.7088 38.7172 23.7088C38.7595 23.7088 39.4369 23.857 40.2201 24.0263C42.7815 24.6084 48.1266 25.4869 49.9894 25.6351L50.3916 25.6669L50.8361 24.6084C52.1274 21.5919 54.1384 18.3002 55.7684 16.5856C56.1283 16.2045 56.1283 16.194 55.8848 16.2045C55.7366 16.2151 55.4085 16.2575 55.1439 16.321Z" fill="#E30613"/>
<path id="Vector_5" d="M69.3798 16.6385C70.1101 17.4852 71.3168 19.1469 71.9306 20.1313C72.6821 21.3485 73.8146 23.5712 74.3015 24.8095L74.672 25.7303L75.3599 25.6668C78.694 25.3387 86.5792 23.9522 86.5792 23.6876C86.5792 23.6347 85.9019 23.1478 85.0763 22.608C80.5674 19.6338 75.5716 17.517 70.6076 16.4691C68.9035 16.1093 68.9141 16.1093 69.3798 16.6385Z" fill="#E30613"/>
<path id="Vector_6" d="M94.4221 46.1578C90.8975 46.6976 88.8442 49.2061 88.2091 53.7361C87.9657 55.5037 88.0504 59.3034 88.3679 60.7852C89.3734 65.4211 91.9665 67.5909 96.2532 67.3898C98.4864 67.284 99.7036 66.7971 101.027 65.4635C102.868 63.6324 103.609 61.1028 103.62 56.7315C103.62 53.1434 103.101 50.8678 101.852 48.9838C100.984 47.6608 99.5766 46.687 98.0101 46.306C97.1316 46.1049 95.3006 46.0202 94.4221 46.1578Z" fill="#E30613"/>
<path id="Vector_7" d="M58.0017 87.3834C55.144 87.5422 53.1859 87.6586 53.1541 87.6904C53.0694 87.7751 54.4031 90.5164 55.1016 91.723C56.6046 94.3055 58.0864 96.0414 59.6105 97.0363C60.6054 97.6819 61.2087 97.8936 62.1931 97.9783C63.1562 98.0524 63.8548 97.8936 64.9344 97.3432C66.1516 96.7187 67.9086 94.9512 69.1046 93.1413C69.8984 91.9452 71.8671 88.1878 71.8671 87.8703C71.8671 87.701 71.6448 87.6692 69.5915 87.5316C67.8556 87.4152 59.3988 87.3093 58.0017 87.3834Z" fill="#E30613"/>
<path id="Vector_8" d="M49.2697 88.029C49.1004 88.0501 48.0843 88.1877 47.0153 88.3359C44.475 88.6852 42.4852 89.0239 40.2519 89.5002C38.8336 89.8071 38.4526 89.9236 38.5373 90.0294C38.7278 90.2623 41.5114 92.051 42.9086 92.8236C46.5284 94.8452 50.4657 96.3376 54.4031 97.1632C55.2181 97.3431 55.9378 97.4807 56.0013 97.4807C56.0648 97.4807 55.8637 97.1844 55.5462 96.8139C53.8315 94.8558 52.2121 92.1886 50.8997 89.1721L50.3916 88.0078L49.9894 87.9972C49.7672 87.9866 49.4496 87.9972 49.2697 88.029Z" fill="#E30613"/>
<path id="Vector_9" d="M74.4179 88.6219C74.0263 89.6168 72.7138 92.2205 72.0259 93.353C71.285 94.5808 70.3853 95.8298 69.6021 96.7294C69.274 97.1105 69.0305 97.428 69.0517 97.4597C69.1681 97.5762 72.7668 96.7083 74.6931 96.0944C78.1542 94.9936 82.5149 92.8344 85.669 90.6646L86.6004 90.019L86.0394 89.892C83.2028 89.2358 79.8053 88.6219 77.1063 88.2726C76.1749 88.1562 75.2435 88.0398 75.0424 88.008C74.6719 87.9657 74.6719 87.9657 74.4179 88.6219Z" fill="#E30613"/>
</g>
</g>
</g>
<defs>
<clipPath id="clip0_200_940">
<rect width="125" height="115.051" rx="57.5254" fill="white"/>
</clipPath>
</defs>
</svg>
