<svg width="35" height="36" viewBox="0 0 35 36" fill="none" xmlns="http://www.w3.org/2000/svg">
<path id="leaf-icon" d="M34.1588 2.28514L33.9412 0L31.7648 0.725441C28.035 2.02134 24.0521 2.41901 20.1396 1.88615C16.0285 1.24814 11.8205 1.81508 8.02479 3.51839C6.01256 4.37522 4.2466 5.72176 2.88771 7.43542C1.52882 9.14908 0.620149 11.1754 0.244432 13.33C-0.24274 16.1133 0.000977648 18.9754 0.951737 21.6363C1.56292 20.2561 2.27929 18.9213 3.09179 17.6464C4.93477 14.9347 7.48846 12.7826 10.4731 11.4257C13.3485 10.1129 16.4914 9.49175 19.65 9.61209C16.6431 10.0718 13.7648 11.1527 11.1986 12.7859C9.96076 13.5637 8.82718 14.4961 7.82529 15.5607C6.86715 16.6248 6.0223 17.7857 5.30438 19.0247C3.95602 21.6145 2.9966 24.3889 2.45703 27.2584C1.87543 30.1372 1.55974 33.0634 1.51395 36H5.14116C5.31163 33.3663 5.66921 30.7482 6.21118 28.1652C8.72743 29.524 11.5493 30.217 14.4087 30.1783C17.0755 30.1765 19.7149 29.64 22.1709 28.6005C35.9724 22.7063 34.1588 3.10126 34.1588 2.28514Z" fill="white"/>
</svg>
