<svg width="19" height="19" viewBox="0 0 19 19" fill="none" xmlns="http://www.w3.org/2000/svg">
<path id="Vector" d="M16.685 0.125H1.66271C0.842427 0.125 0.125 0.716428 0.125 1.52643V16.583C0.125 17.3981 0.842427 18.125 1.66271 18.125H16.6807C17.5061 18.125 18.125 17.393 18.125 16.5821V1.52728C18.1301 0.716427 17.5061 0.125857 16.685 0.125857V0.125ZM5.70499 15.1293H3.12499V7.1107H5.70499V15.1293ZM4.50499 5.89185H4.48614C3.66071 5.89185 3.12671 5.27813 3.12671 4.50928C3.12671 3.72499 3.67528 3.12499 4.51871 3.12499C5.36213 3.12499 5.87899 3.72071 5.89699 4.50842C5.89699 5.27728 5.36213 5.89099 4.50414 5.89099L4.50499 5.89185ZM15.1293 15.1293H12.5501V10.745C12.5501 9.69498 12.1747 8.9767 11.2421 8.9767C10.529 8.9767 10.1073 9.45927 9.91955 9.92898C9.84927 10.0978 9.83041 10.3276 9.83041 10.5624V15.1293H7.25213V7.1107H9.83041V8.22584C10.2058 7.69184 10.7921 6.92299 12.1558 6.92299C13.8487 6.92299 15.1293 8.03813 15.1293 10.4441V15.1293Z" fill="#130000"/>
</svg>
