<svg width="70" height="56" viewBox="0 0 70 56" fill="none" xmlns="http://www.w3.org/2000/svg">
<g id="logo">
<path d="M14.9658 0C17.2104 0.139188 19.6636 1.01281 21.2105 2.69586C22.7752 4.47368 22.6999 7.60919 22.64 10.1016V10.1048C22.6299 10.5231 22.6203 10.9232 22.619 11.2957L22.6185 11.5957C22.6183 11.7243 22.6182 11.8528 22.618 11.9814C22.6173 12.4698 22.6163 12.9582 22.615 13.4466C22.613 14.2217 22.612 14.9967 22.6111 15.7717C22.6086 17.9743 22.6047 20.1769 22.5999 22.3795C22.5972 23.599 22.5954 24.8184 22.5943 26.0379C22.5937 26.6809 22.5927 27.3238 22.5907 27.9668C22.5436 32.3332 22.5436 32.3333 23.0409 36.6637C20.7411 35.625 18.4639 33.6728 17.5498 31.272C17.104 29.739 17.1031 28.1616 17.1086 26.5777C17.1088 26.403 17.109 26.2283 17.1091 26.0537C17.1095 25.6801 17.1101 25.3066 17.1111 24.933C17.1125 24.3397 17.1132 23.7465 17.1137 23.1532C17.1149 21.7855 17.1173 20.4177 17.1197 19.05C17.1219 17.7982 17.1238 16.5463 17.1249 15.2945C17.1253 14.8026 17.126 14.3106 17.1272 13.8187C17.1339 11.1359 17.1263 8.46546 16.8231 5.7961L16.795 5.54505C16.6003 3.83367 16.3876 2.00146 15.3965 0.539173C15.2545 0.429273 15.1112 0.32093 14.9658 0.215669V0Z" fill="#CF2E2E"/>
<path d="M44.4667 5.9309C44.9759 6.09314 45.4177 6.30035 45.8731 6.57791L46.0851 6.7068C47.3594 7.49651 48.9661 8.51763 49.4194 10.0286C49.5457 11.1003 49.5436 12.1842 49.5414 13.2626C49.5413 13.3371 49.5411 13.4116 49.541 13.486L49.5416 14.0215C49.5421 14.5028 49.5419 14.9841 49.5416 15.4654C49.5413 15.8909 49.5415 16.3163 49.5416 16.7418L49.5417 17.0005C49.5419 17.864 49.5417 18.7276 49.5411 19.5912C49.5406 20.4646 49.5406 21.338 49.5411 22.2114C49.544 27.0659 49.5372 31.9182 49.4194 36.7716C48.8615 36.5891 48.3948 36.3626 47.8919 36.0639L47.6476 35.9188C46.3969 35.161 44.9409 34.128 44.4667 32.6739C44.366 32.0946 44.3438 31.538 44.3454 30.9525L44.3449 30.6649C44.3445 30.3482 44.3448 30.0315 44.3451 29.7147C44.345 29.487 44.3448 29.2593 44.3446 29.0317C44.3441 28.4135 44.3443 27.7954 44.3446 27.1772C44.3449 26.5282 44.3446 25.8791 44.3444 25.23C44.3443 24.1382 44.3445 23.0464 44.345 21.9546C44.3456 20.698 44.3454 19.4415 44.3448 18.1849C44.3443 17.1026 44.3443 16.0204 44.3446 14.9382C44.3447 14.2934 44.3447 13.6486 44.3444 13.0038C44.3441 12.3956 44.3443 11.7873 44.3449 11.1791C44.3451 10.9579 44.345 10.7367 44.3448 10.5155C44.3433 8.98465 44.3886 7.45979 44.4667 5.9309Z" fill="#CF2E2E"/>
<path d="M29.2856 5.9309C29.3834 11.1219 29.4105 16.3114 29.4071 21.5032C29.4066 22.3081 29.407 23.113 29.4075 23.9179C29.408 24.7096 29.408 25.5014 29.4078 26.2932C29.4076 26.7594 29.4076 27.2256 29.4079 27.6918C29.4082 28.1253 29.408 28.5588 29.4074 28.9924C29.4073 29.1494 29.4073 29.3064 29.4075 29.4634C29.4107 31.7541 29.4119 32.5688 29.0804 33.2115C28.8974 33.5662 28.6131 33.8685 28.1719 34.3377C27.3424 35.1416 25.554 36.7716 24.3329 36.7716C24.2456 33.7229 24.2088 30.6768 24.2108 27.6269C24.211 27.1444 24.2108 26.6619 24.2107 26.1794L24.2106 25.9265C24.2104 24.9797 24.2107 24.0328 24.2112 23.086C24.2118 21.9956 24.2116 20.9052 24.211 19.8148C24.2105 18.869 24.2104 17.9231 24.2107 16.9773C24.2109 16.4164 24.2109 15.8555 24.2105 15.2946C24.2102 14.7699 24.2104 14.2453 24.2111 13.7206C24.2112 13.5294 24.2112 13.3381 24.2109 13.1469V13.1461C24.2083 10.8475 24.2074 10.0564 24.5313 9.43519C24.7012 9.10926 24.9605 8.83002 25.3557 8.40435C26.1926 7.6265 28.0937 5.9309 29.2856 5.9309Z" fill="#CF2E2E"/>
<path d="M42.744 5.9309C42.7539 9.2938 42.7615 12.6567 42.766 16.0196C42.7666 16.4168 42.7671 16.814 42.7677 17.2113L42.768 17.4509C42.7699 18.7305 42.7733 20.0101 42.7773 21.2897C42.7813 22.6032 42.7837 23.9167 42.7846 25.2302C42.7852 26.0403 42.787 26.8505 42.7905 27.6607C42.7931 28.2824 42.7933 28.9041 42.7928 29.5259C42.7929 29.7806 42.7937 30.0353 42.7954 30.2899C42.7975 30.6381 42.797 30.9862 42.7958 31.3344L42.7996 31.6386C42.7896 32.7412 42.3132 33.6123 41.5597 34.3992C40.4495 35.4265 39.1224 36.2986 37.6837 36.7716C37.6738 33.4242 37.6662 30.0769 37.6617 26.7296C37.6611 26.3341 37.6606 25.9387 37.66 25.5432L37.6597 25.3046C37.6578 24.031 37.6544 22.7574 37.6504 21.4838C37.6464 20.1763 37.644 18.8688 37.6431 17.5613C37.6426 16.7549 37.6407 15.9486 37.6372 15.1422C37.6346 14.5232 37.6344 13.9042 37.635 13.2852C37.6348 13.0317 37.634 12.7783 37.6323 12.5249C37.6302 12.1781 37.6307 11.8315 37.6319 11.4848L37.6281 11.1828C37.6398 9.89573 38.1922 9.0774 39.0833 8.19542L39.2697 8.00166C39.9862 7.31189 41.7229 5.9309 42.744 5.9309Z" fill="#CF2E2E"/>
<path d="M31.0083 5.9309C32.8501 6.52397 34.9231 7.95888 35.863 9.67562C36.0861 10.2338 36.0843 10.8167 36.0824 11.4094L36.0823 11.4428L36.0828 11.7046C36.0833 11.9933 36.0829 12.2819 36.0826 12.5706C36.0827 12.7782 36.0829 12.9857 36.0832 13.1932C36.0836 13.7576 36.0835 14.322 36.0831 14.8863C36.0829 15.4008 36.083 15.9153 36.0832 16.4299L36.0833 16.671C36.0835 17.6741 36.0832 18.6772 36.0827 19.6802C36.0821 20.8281 36.0823 21.9759 36.0829 23.1237C36.0834 24.116 36.0834 25.1082 36.0832 26.1005C36.083 26.6898 36.083 27.2792 36.0833 27.8686C36.0849 30.8379 36.0495 33.8035 35.961 36.7716C34.1285 36.1744 32.1904 34.7836 31.2236 33.1052C30.9764 32.5238 30.9785 31.9939 30.9824 31.3733L30.9818 31.0434C30.9815 30.6812 30.9826 30.319 30.9838 29.9568V29.9566L30.9838 29.9496C30.9839 29.6882 30.9839 29.4267 30.9837 29.1653C30.9837 28.6025 30.9843 28.0398 30.9855 27.477C30.9873 26.6634 30.9878 25.8498 30.9881 25.0361C30.9886 23.716 30.99 22.3958 30.992 21.0757C30.994 19.7935 30.9955 18.5113 30.9964 17.229L30.9974 15.7994C30.9997 12.5099 31.0035 9.22041 31.0083 5.9309Z" fill="#CF2E2E"/>
<path d="M55.8795 24.1549C55.8845 25.1645 55.8883 26.1741 55.8906 27.1838C55.8918 27.6526 55.8933 28.1215 55.8957 28.5904C55.8981 29.0435 55.8994 29.4965 55.8999 29.9496C55.9003 30.1219 55.9011 30.2941 55.9023 30.4664C55.912 31.9637 55.8282 33.247 54.7557 34.3925C53.8976 35.202 52.9105 35.8495 51.8756 36.4076L51.6682 36.5197C51.3629 36.6785 51.1682 36.7716 50.8191 36.7716C50.8116 35.7039 50.8059 34.6362 50.8024 33.5684C50.8007 33.0726 50.7984 32.5768 50.7947 32.0809C50.7912 31.602 50.7893 31.1231 50.7885 30.6441C50.7879 30.4618 50.7867 30.2795 50.785 30.0973C50.7826 29.841 50.7823 29.5848 50.7824 29.3285L50.7789 29.1026C50.7861 27.9563 51.3345 27.3088 52.1111 26.5273L52.3181 26.3087C52.9784 25.6618 53.7861 25.2182 54.591 24.7761C54.6962 24.7183 54.8013 24.6606 54.9061 24.6024C55.0878 24.4999 55.2663 24.3915 55.4438 24.2817C55.5625 24.2134 55.6173 24.1819 55.6762 24.1674C55.7267 24.1549 55.7802 24.1549 55.8795 24.1549Z" fill="#CF2E2E"/>
<path fill-rule="evenodd" clip-rule="evenodd" d="M0 43.673C0.314197 43.6584 0.627721 43.6477 0.942092 43.6393L1.21126 43.6256C1.46447 43.6205 1.68974 43.6221 1.93802 43.673C2.09252 43.8242 2.16103 43.8913 2.2178 43.9671C2.26303 44.0275 2.30081 44.0936 2.36869 44.2121L2.58402 44.1245L2.90703 43.9965L3.10049 43.9101C3.80897 43.6107 4.45841 43.5584 5.19496 43.801C5.9583 44.1295 6.33694 44.7774 6.67539 45.5062C7.02442 46.6946 6.91562 48.2968 6.35239 49.3882C5.91419 50.1472 5.3721 50.6488 4.52204 50.8979C3.78457 50.9864 3.18527 50.8914 2.47636 50.6822C2.48377 51.1371 2.49324 51.5918 2.50461 52.0466C2.50819 52.2013 2.51121 52.356 2.51366 52.5107C2.51727 52.7332 2.5229 52.9556 2.52893 53.178L2.53747 53.5836C2.54761 53.7635 2.55222 53.8454 2.58318 53.9156C2.60901 53.9741 2.65322 54.0246 2.73422 54.1172C2.92692 54.255 3.12179 54.3595 3.3377 54.4564V55.2113H0.861341L0.854875 54.2876C0.847675 53.2813 0.839316 52.275 0.830383 51.2687C0.825003 50.6585 0.820014 50.0483 0.815919 49.4381C0.811953 48.8494 0.806962 48.2607 0.801256 47.672C0.799258 47.4472 0.797632 47.2224 0.79638 46.9977C0.794567 46.6832 0.791441 46.3687 0.788003 46.0543L0.787298 45.7718L0.783656 45.5115L0.781851 45.2862C0.747883 45.0314 0.674694 44.8608 0.538338 44.6435L0.538113 44.6434C0.394672 44.5708 0.326578 44.5363 0.255808 44.5087C0.191886 44.4838 0.125782 44.4645 0 44.4278V43.673ZM5.22146 46.3107C5.06451 45.831 4.85872 45.5279 4.41437 45.2905C3.66668 45.1636 2.99803 45.3681 2.47636 45.9375C2.35839 46.4343 2.3659 46.909 2.39513 47.4145C2.40448 47.5722 2.41182 47.7299 2.41721 47.8877C2.43015 48.3524 2.44962 48.8162 2.47636 49.2804C2.73595 49.4203 2.89867 49.4953 3.1968 49.5209L3.50593 49.5163C4.13255 49.512 4.49584 49.403 4.95271 48.9569C5.38806 48.145 5.399 47.2067 5.22146 46.3107Z" fill="#CF2E2E"/>
<path fill-rule="evenodd" clip-rule="evenodd" d="M53.7261 44.2121C54.3801 44.7475 54.7511 45.4362 54.9105 46.261C55.0352 47.5815 55.0295 48.9614 54.1568 50.0352C53.4809 50.6968 52.8662 50.9146 51.9429 50.9316C50.9981 50.9022 50.4398 50.724 49.7445 50.074C48.8571 49.0356 48.8905 47.5479 48.9888 46.261C49.1714 45.2982 49.6732 44.5817 50.4557 44.0032C51.4598 43.5533 52.7963 43.6334 53.7261 44.2121ZM52.3067 45.1999C52.8369 45.4042 53.0915 45.8524 53.3358 46.3419C53.498 47.1864 53.5019 48.0788 53.0801 48.849C52.7524 49.2596 52.4649 49.4663 51.9496 49.5769C51.4343 49.4663 51.1469 49.2596 50.8191 48.849C50.4185 48.1174 50.3519 47.2195 50.5706 46.4202C50.8953 45.601 51.3621 45.0324 52.3067 45.1999Z" fill="#CF2E2E"/>
<path fill-rule="evenodd" clip-rule="evenodd" d="M68.3643 44.0917C69.1784 44.5375 69.5829 45.2484 69.9167 46.0993C70.0321 46.7468 70.0357 47.3478 69.8763 47.9864H64.9236C65.1193 48.4152 65.211 48.6159 65.3443 48.7833C65.4616 48.9306 65.6113 49.052 65.8926 49.2804C66.4917 49.4804 67.2607 49.5172 67.8596 49.2993C67.9494 49.2484 68.0023 49.2183 68.0536 49.1855C68.1271 49.1385 68.1971 49.0859 68.3673 48.958L68.3676 48.9578L68.3682 48.9574L68.3683 48.9574L68.3687 48.9571L68.3689 48.9569L68.7996 48.7412L69.6609 49.3882C69.3332 50.0448 68.8907 50.4243 68.194 50.662C67.182 50.9639 66.1098 51.1029 65.1423 50.6026C64.3477 50.1083 63.9259 49.579 63.6046 48.694C63.3179 47.3374 63.4859 46.1471 64.1964 44.9581C65.1592 43.6447 66.9599 43.4262 68.3643 44.0917ZM68.5843 46.261C68.3828 45.7817 68.2122 45.5002 67.7566 45.2433C67.0216 44.9279 66.3412 44.9768 65.6478 45.3697C65.1156 45.7604 65.0294 46.1645 64.9236 46.8002H68.5843V46.261Z" fill="#CF2E2E"/>
<path fill-rule="evenodd" clip-rule="evenodd" d="M12.2695 44.0917C13.0835 44.5375 13.4881 45.2484 13.8218 46.0993C13.9373 46.7468 13.9409 47.3478 13.7815 47.9864H8.82874C9.0245 48.4152 9.11612 48.6159 9.24947 48.7833C9.36681 48.9306 9.51645 49.052 9.79775 49.2804C10.3969 49.4804 11.1658 49.5172 11.7648 49.2993C11.8545 49.2484 11.9075 49.2183 11.9587 49.1855C12.0324 49.1384 12.1026 49.0857 12.2735 48.9574L12.2738 48.9571L12.274 48.9569L12.7048 48.7412L13.5661 49.3882C13.2383 50.0448 12.7959 50.4243 12.0991 50.662C11.0872 50.9639 10.0149 51.1029 9.04744 50.6026C8.25289 50.1083 7.83112 49.579 7.50981 48.694C7.22312 47.3374 7.39107 46.1471 8.10157 44.9581C9.06442 43.6447 10.8651 43.4262 12.2695 44.0917ZM11.6617 45.2433C12.1174 45.5002 12.288 45.7817 12.4894 46.261V46.8002H8.82874C8.93453 46.1645 9.02073 45.7604 9.55298 45.3697C10.2464 44.9768 10.9268 44.9279 11.6617 45.2433Z" fill="#CF2E2E"/>
<path fill-rule="evenodd" clip-rule="evenodd" d="M31.8696 44.1043C32.4614 44.6082 32.7916 45.2644 32.8563 46.0421C32.8869 46.6943 32.8863 47.3477 32.8857 48.0007L32.8855 48.1438C32.8859 48.4123 32.8889 48.6808 32.892 48.9493L32.8894 49.1995C32.8889 49.3073 32.8886 49.3702 32.8926 49.4329C32.8983 49.5211 32.9124 49.6088 32.9463 49.8195C33.0548 49.9208 33.1066 49.9691 33.1632 50.0108C33.2148 50.0487 33.2706 50.0812 33.377 50.143C33.3911 50.3524 33.3978 50.4515 33.3971 50.5506C33.3964 50.6397 33.3897 50.7288 33.377 50.8979C33.1166 50.9125 32.857 50.9231 32.5964 50.9316L32.3739 50.9453H32.3732C32.2972 50.9471 32.2479 50.9483 32.1986 50.9468C32.1082 50.944 32.018 50.932 31.7626 50.898L31.7621 50.8979L31.7619 50.8979C31.6153 50.7489 31.549 50.6816 31.4922 50.6071C31.4454 50.5458 31.405 50.4795 31.3313 50.3587L30.9814 50.5676C30.3075 50.97 29.4982 51.0248 28.7367 50.8444C28.0837 50.59 27.6613 50.1087 27.3476 49.496C27.1523 48.8586 27.0985 48.0688 27.4014 47.4607C27.8105 46.8548 28.4952 46.5581 29.1779 46.3688C29.9528 46.3083 30.7074 46.3054 31.4389 46.5845C31.3718 46.1147 31.305 45.7255 31.0217 45.3377C30.4973 45.0961 29.9605 45.0988 29.3933 45.1827C29.2402 45.2654 29.1676 45.3045 29.0972 45.3473C29.0338 45.3859 28.9721 45.4273 28.8549 45.5062H28.6396L28.4243 45.9375C27.9468 45.7872 27.6842 45.5487 27.3476 45.1827C27.4727 44.6954 27.6997 44.4893 28.1063 44.2269C29.1565 43.6147 30.7895 43.4716 31.8696 44.1043ZM31.4389 47.7707V48.849C30.5633 49.3401 30.2528 49.5143 29.9286 49.5454C29.7504 49.5625 29.5681 49.5365 29.2857 49.4961L29.2856 49.496C28.9997 49.4056 28.896 49.3333 28.7136 49.0984C28.5985 48.7105 28.6235 48.4798 28.7473 48.0942C29.4598 47.4432 30.5677 47.582 31.4389 47.7707Z" fill="#CF2E2E"/>
<path d="M55.3412 43.7808H57.7098L57.8175 44.32L57.9946 44.2294L58.228 44.1111L58.4589 43.9935C59.1323 43.6724 59.8708 43.6977 60.5832 43.8886C61.1995 44.1224 61.6012 44.5644 61.8917 45.1491C62.1832 45.8735 62.1835 46.6462 62.1838 47.4162C62.1838 47.5277 62.1839 47.6392 62.1848 47.7505C62.1873 47.9934 62.1904 48.2362 62.1947 48.4791C62.1985 48.698 62.2006 48.9169 62.2027 49.1358C62.2297 49.4697 62.2564 49.6565 62.4472 49.9274L62.4474 49.9275L62.4478 49.9277L62.4481 49.9279C62.5911 50.0002 62.6591 50.0346 62.7298 50.0621C62.7937 50.0871 62.8598 50.1063 62.9856 50.143V50.8979H60.5092L60.497 49.9101C60.492 49.5928 60.4865 49.2755 60.4809 48.9583C60.4774 48.7385 60.4744 48.5188 60.4719 48.299C60.4683 47.9823 60.4626 47.6657 60.4566 47.349L60.4545 47.0535C60.4409 46.4599 60.3672 46.0291 60.0785 45.5062C59.6705 45.2337 59.4872 45.2427 59.0019 45.2905C58.6999 45.4101 58.4228 45.5621 58.1405 45.7218C58.0973 45.7436 58.0541 45.7654 58.0109 45.7871C57.9864 45.7994 57.962 45.8116 57.9375 45.8239C57.9104 45.8375 57.8832 45.8511 57.8561 45.8646C57.8074 45.889 57.7586 45.9133 57.7098 45.9375C57.7146 46.4518 57.7221 46.966 57.7322 47.4803C57.7352 47.6551 57.7375 47.83 57.739 48.0049C57.7413 48.2566 57.7464 48.5081 57.7519 48.7597L57.7523 48.996C57.763 49.3658 57.7915 49.5697 58.0184 49.8672C58.2775 50.0567 58.4701 50.1078 58.7865 50.143V50.8979H56.2025L56.1865 49.6355C56.1807 49.2329 56.1745 48.8303 56.1683 48.4278C56.1642 48.1476 56.1604 47.8673 56.1571 47.5871C56.1522 47.1848 56.1459 46.7825 56.1394 46.3802L56.1356 45.9993L56.1292 45.6461L56.1248 45.3348C56.119 45.2082 56.1157 45.1372 56.0942 45.0723C56.0667 44.9896 56.0095 44.9169 55.8795 44.7513C55.7358 44.6834 55.6673 44.651 55.5969 44.6233C55.5327 44.598 55.4669 44.5766 55.3412 44.5357V43.7808Z" fill="#CF2E2E"/>
<path d="M38.4373 43.7808H40.806L40.8144 44.7648C40.8186 45.0814 40.8234 45.3979 40.8284 45.7145C40.8314 45.9335 40.8337 46.1525 40.8352 46.3715C40.8375 46.6875 40.8426 47.0032 40.8481 47.3191L40.8485 47.613C40.863 48.2467 40.9746 48.7545 41.3444 49.2804C41.6657 49.4413 41.9155 49.4208 42.2625 49.3924L42.3134 49.3882C42.7413 49.2226 43.1168 48.9955 43.4977 48.7412C43.5319 48.4632 43.5455 48.2116 43.5444 47.9333L43.5461 47.6907C43.5468 47.5212 43.5467 47.3517 43.5457 47.1822C43.5448 46.9232 43.5479 46.6644 43.5513 46.4055C43.5515 46.2408 43.5515 46.0761 43.5511 45.9114L43.5548 45.6772C43.5496 45.3056 43.5245 45.1094 43.2942 44.8119C43.0675 44.6438 42.9135 44.5753 42.6364 44.5357V43.7808H45.1127L45.1287 45.0159C45.1345 45.4102 45.1407 45.8046 45.1469 46.1989C45.151 46.4732 45.1548 46.7474 45.1582 47.0217C45.1631 47.4157 45.1693 47.8097 45.1758 48.2037L45.1796 48.5758L45.1861 48.9224L45.1904 49.2272C45.2222 49.5125 45.279 49.6879 45.4357 49.9274L45.436 49.9275L45.4364 49.9277C45.5795 50.0002 45.6476 50.0346 45.7183 50.0621C45.7822 50.0871 45.8483 50.1063 45.9741 50.143V50.8979H43.6054L43.4977 50.3587L43.3207 50.4493L43.0872 50.5676L42.8563 50.6852C42.2517 50.9735 41.5521 51.005 40.9028 50.8406C40.2689 50.5833 39.8154 50.2173 39.538 49.5904C39.2178 48.7654 39.2269 47.9422 39.2364 47.0763C39.237 47.0204 39.2376 46.9643 39.2381 46.908C39.2399 46.6519 39.2409 46.3959 39.2392 46.1398C39.2382 45.9818 39.2392 45.8239 39.2424 45.6659C39.2404 45.3009 39.2166 45.1085 38.9929 44.8145C38.8827 44.7248 38.8247 44.6776 38.7599 44.6432C38.6879 44.6051 38.6075 44.5828 38.4378 44.5358L38.4374 44.5357L38.4373 44.5357V43.7808Z" fill="#CF2E2E"/>
<path d="M25.4096 44.1043V43.7808H26.5939C26.6884 44.8255 26.7149 45.1186 26.6062 45.3471C26.5638 45.4362 26.5009 45.5156 26.4135 45.6258C26.064 45.8433 25.8235 45.9375 25.4096 45.9375L24.8712 45.3983C24.2819 45.0179 23.7769 44.9921 23.0947 45.1287L22.9332 45.1827L22.8255 46.0453C23.2872 46.3721 23.7536 46.4785 24.2875 46.6002C24.3137 46.6061 24.34 46.6121 24.3665 46.6182C25.2769 46.8433 25.9273 47.071 26.4862 47.8583C26.718 48.5982 26.6505 49.232 26.3058 49.9261C25.9838 50.4161 25.5702 50.6219 25.0327 50.8238C24.0989 51.0141 23.0154 51.0731 22.1795 50.5744L21.8431 50.3789C21.4939 50.1128 21.2626 49.8427 20.9952 49.496C21.2727 49.2105 21.5245 48.9629 21.8565 48.7412C22.2347 48.7543 22.4932 48.9901 22.7584 49.2321L22.759 49.2327C22.8163 49.285 22.874 49.3375 22.9332 49.3882C23.3941 49.6633 23.8091 49.6601 24.3329 49.6039L24.3332 49.6038C24.5314 49.5563 24.6259 49.5337 24.7092 49.4896C24.7851 49.4494 24.8517 49.3914 24.9789 49.2804C25.0509 49.0962 25.0867 49.0046 25.1 48.9097C25.1132 48.8158 25.1043 48.7187 25.0866 48.5255C24.7725 48.067 24.3072 47.9518 23.8065 47.8279C23.7402 47.8115 23.6734 47.7949 23.6061 47.7774C22.7379 47.551 22.0024 47.2879 21.372 46.6249C21.1379 46.0973 21.1068 45.6423 21.2105 45.0748C21.4363 44.5621 21.7858 44.2118 22.2737 43.9426C23.2416 43.5723 24.4919 43.6448 25.4096 44.1043Z" fill="#CF2E2E"/>
<path d="M36.284 40.0066V43.7808H37.3607V44.6435H36.284C36.2914 45.1846 36.3009 45.7255 36.3122 46.2665C36.3158 46.4504 36.3188 46.6343 36.3213 46.8181C36.3249 47.0832 36.3305 47.3481 36.3366 47.6131L36.3386 47.8603C36.3532 48.3907 36.4268 48.8842 36.8223 49.2804C37.0034 49.3055 37.1853 49.3249 37.3674 49.341L37.6673 49.3684L37.899 49.3882C38.0382 49.8324 38.1426 50.2151 38.1143 50.6822C37.576 51.0047 36.9995 50.9633 36.3917 50.8979C35.7337 50.5864 35.2824 50.0586 35.0189 49.3815C34.8035 48.7683 34.7616 48.1864 34.7661 47.5394L34.7666 47.2879C34.7672 47.0242 34.7685 46.7606 34.7699 46.4969C34.7705 46.3175 34.7709 46.1381 34.7714 45.9588C34.7726 45.5203 34.7744 45.0819 34.7766 44.6435H33.8076V43.7808H34.7766L34.7544 43.5272C34.6181 41.7444 34.5861 41.3262 34.7293 40.9808C34.7732 40.875 34.8335 40.776 34.9123 40.6467C35.2638 40.3143 35.7889 40.0066 36.284 40.0066Z" fill="#CF2E2E"/>
<path d="M14.2121 43.7808H16.5808L16.6885 44.32L16.8655 44.2294L17.099 44.1111L17.3299 43.9935C17.9493 43.6982 18.5846 43.6849 19.2443 43.8583C19.7795 44.0552 20.1677 44.2351 20.4568 44.7513C20.4965 44.9303 20.5329 45.11 20.5645 45.2905C20.3949 45.3842 20.2242 45.4759 20.0531 45.5668L19.7654 45.7223C19.4627 45.8394 19.3507 45.8508 19.0572 45.7218L18.8687 45.4994C18.584 45.2538 18.3854 45.2123 18.0114 45.2393C17.4742 45.351 17.0593 45.5224 16.6885 45.9375C16.5591 46.4743 16.5601 46.9796 16.5836 47.5291C16.5943 47.7844 16.5968 48.0388 16.5981 48.2943C16.6011 48.457 16.6046 48.6198 16.6086 48.7825L16.6121 49.0126C16.6297 49.3778 16.6658 49.575 16.8937 49.8658C17.1197 50.0356 17.2724 50.1033 17.5498 50.143V50.8979H15.0735L15.0575 49.6628C15.0517 49.2685 15.0455 48.8741 15.0393 48.4798C15.0352 48.2055 15.0314 47.9313 15.028 47.657C15.0231 47.263 15.0169 46.869 15.0104 46.475L15.0066 46.1029L15.0001 45.7563L14.9958 45.4515C14.964 45.1662 14.9072 44.9908 14.7505 44.7513L14.7502 44.7512C14.6068 44.6786 14.5387 44.6441 14.4679 44.6166C14.404 44.5916 14.3379 44.5724 14.2121 44.5357V43.7808Z" fill="#CF2E2E"/>
<path d="M47.542 49.2804C47.7561 49.3428 47.8464 49.3691 47.9248 49.4154C47.9819 49.4491 48.0328 49.4935 48.1207 49.5702C48.2731 49.9024 48.2953 50.105 48.2351 50.4666C48.1263 50.5954 48.0708 50.661 48.0053 50.7144C47.9371 50.7699 47.858 50.812 47.6968 50.8979C47.4915 50.8944 47.3924 50.8927 47.2952 50.8779C47.2044 50.8641 47.1154 50.8389 46.9432 50.7901L46.9431 50.7901C46.676 50.3888 46.6779 50.1864 46.7277 49.7117C46.9712 49.3216 47.0798 49.2804 47.542 49.2804Z" fill="#CF2E2E"/>
</g>
</svg>
