<svg width="145" height="114" viewBox="0 0 145 114" fill="none" xmlns="http://www.w3.org/2000/svg">
<g id="logo">
<path d="M31.0006 0C35.6502 0.287395 40.7317 2.09124 43.9361 5.56641C47.1771 9.23724 47.0212 15.7114 46.8972 20.8577V20.8644C46.8763 21.728 46.8564 22.5541 46.8537 23.3233L46.8527 23.9427C46.8523 24.2082 46.8519 24.4737 46.8516 24.7392C46.8501 25.7476 46.848 26.7561 46.8454 27.7645C46.8412 29.3648 46.8391 30.9651 46.8373 32.5654C46.832 37.1133 46.824 41.6612 46.814 46.2092C46.8085 48.7271 46.8047 51.245 46.8025 53.7629C46.8013 55.0905 46.7992 56.4181 46.7951 57.7457C46.6975 66.7614 46.6975 66.7616 47.7275 75.7031C42.9636 73.5583 38.2466 69.5274 36.3532 64.5703C35.4297 61.405 35.4278 58.1479 35.4393 54.8775C35.4397 54.5168 35.4401 54.1562 35.4403 53.7955C35.441 53.0242 35.4424 52.2529 35.4443 51.4816C35.4474 50.2566 35.4487 49.0316 35.4497 47.8066C35.4524 44.9825 35.4573 42.1585 35.4623 39.3344C35.4668 36.7496 35.4708 34.1648 35.473 31.58C35.4739 30.5642 35.4753 29.5485 35.4779 28.5328C35.4916 22.9933 35.4759 17.4794 34.8478 11.9678L34.7896 11.4494C34.3864 7.91574 33.9457 4.1326 31.8927 1.11328C31.5986 0.886361 31.3019 0.662655 31.0006 0.445312V0Z" fill="white"/>
<path d="M92.1097 12.2461C93.1643 12.5811 94.0796 13.0089 95.0229 13.582L95.4621 13.8482C98.1017 15.4788 101.43 17.5872 102.369 20.707C102.63 22.9199 102.626 25.1579 102.622 27.3845C102.621 27.5384 102.621 27.6922 102.621 27.8459L102.622 28.9515C102.623 29.9453 102.623 30.9391 102.622 31.933C102.621 32.8114 102.622 33.6899 102.622 34.5684L102.622 35.1025C102.623 36.8856 102.622 38.6686 102.621 40.4517C102.62 42.2552 102.62 44.0586 102.621 45.862C102.627 55.8856 102.613 65.9046 102.369 75.9258C101.213 75.549 100.246 75.0813 99.2047 74.4646L98.6986 74.165C96.108 72.6002 93.0918 70.4673 92.1097 67.4648C91.9009 66.2688 91.855 65.1194 91.8583 63.9106L91.8573 63.3168C91.8564 62.6628 91.8571 62.0088 91.8578 61.3548C91.8575 60.8847 91.8571 60.4146 91.8566 59.9444C91.8556 58.6681 91.856 57.3918 91.8567 56.1154C91.8572 54.7752 91.8567 53.4351 91.8564 52.0949C91.856 49.8405 91.8565 47.5862 91.8576 45.3319C91.8588 42.7372 91.8584 40.1426 91.8571 37.548C91.8561 35.3134 91.856 33.0788 91.8566 30.8442C91.8569 29.5129 91.857 28.1816 91.8562 26.8502C91.8556 25.5943 91.856 24.3384 91.8573 23.0825C91.8576 22.6258 91.8575 22.1691 91.857 21.7124C91.8539 18.5515 91.9479 15.4029 92.1097 12.2461Z" fill="white"/>
<path d="M60.663 12.2461C60.8656 22.9644 60.9218 33.6797 60.9147 44.3997C60.9137 46.0616 60.9144 47.7236 60.9155 49.3855C60.9165 51.0204 60.9167 52.6552 60.9161 54.2901C60.9157 55.2527 60.9157 56.2153 60.9164 57.1779C60.9171 58.073 60.9166 58.9682 60.9153 59.8633C60.9151 60.1875 60.9151 60.5116 60.9156 60.8358C60.9222 65.5657 60.9246 67.248 60.238 68.5749C59.859 69.3074 59.27 69.9316 58.3561 70.9004C56.6378 72.5603 52.9334 75.9258 50.4038 75.9258C50.223 69.6309 50.1467 63.3413 50.1508 57.0439C50.1513 56.0477 50.151 55.0514 50.1507 54.0551L50.1505 53.533C50.1501 51.5779 50.1506 49.6229 50.1517 47.6678C50.153 45.4164 50.1525 43.165 50.1513 40.9136C50.1503 38.9606 50.1502 37.0076 50.1507 35.0546C50.1511 33.8965 50.1511 32.7383 50.1504 31.5801C50.1498 30.4968 50.1502 29.4135 50.1515 28.3302C50.1518 27.9354 50.1517 27.5405 50.1512 27.1457V27.1439C50.1458 22.3979 50.1439 20.7645 50.8148 19.4817C51.1667 18.8088 51.7038 18.2322 52.5226 17.3533C54.2561 15.7472 58.1942 12.2461 60.663 12.2461Z" fill="white"/>
<path d="M88.5412 12.2461C88.5616 19.1898 88.5774 26.1335 88.5868 33.0772C88.5879 33.8974 88.5891 34.7176 88.5902 35.5378L88.5909 36.0325C88.5948 38.6747 88.6019 41.3168 88.6101 43.959C88.6184 46.671 88.6234 49.3831 88.6252 52.0951C88.6264 53.768 88.6302 55.4408 88.6375 57.1136C88.6428 58.3974 88.6433 59.6811 88.6421 60.9649C88.6424 61.4908 88.6442 62.0167 88.6476 62.5425C88.652 63.2615 88.6509 63.9802 88.6485 64.6991L88.6564 65.3273C88.6356 67.6039 87.6488 69.4025 86.0879 71.0273C83.7883 73.1484 81.0393 74.9492 78.059 75.9258C78.0387 69.0142 78.0229 62.1027 78.0135 55.1911C78.0123 54.3746 78.0112 53.558 78.01 52.7415L78.0093 52.2489C78.0054 49.6191 77.9984 46.9894 77.9902 44.3596C77.9818 41.6599 77.9769 38.9602 77.9751 36.2604C77.9739 34.5955 77.97 32.9305 77.9627 31.2656C77.9575 29.9874 77.9569 28.7093 77.9581 27.4311C77.9579 26.9078 77.9561 26.3846 77.9527 25.8613C77.9482 25.1454 77.9493 24.4297 77.9517 23.7137L77.9439 23.0902C77.9681 20.4327 79.1125 18.743 80.9584 16.9219L81.3443 16.5218C82.8286 15.0976 86.4261 12.2461 88.5412 12.2461Z" fill="white"/>
<path d="M64.2314 12.2461C68.0466 13.4707 72.3407 16.4335 74.2876 19.9782C74.7498 21.1308 74.746 22.3343 74.7422 23.558L74.742 23.627L74.743 24.1675C74.7439 24.7636 74.7432 25.3597 74.7425 25.9558C74.7428 26.3843 74.7432 26.8128 74.7437 27.2413C74.7447 28.4066 74.7443 29.5719 74.7436 30.7372C74.7431 31.7996 74.7434 32.8619 74.7438 33.9243L74.7439 34.4223C74.7443 36.4934 74.7438 38.5646 74.7427 40.6357C74.7415 43.0057 74.7419 45.3757 74.7431 47.7458C74.7441 49.7945 74.7443 51.8433 74.7437 53.8921C74.7433 55.1091 74.7433 56.3261 74.744 57.543C74.7473 63.674 74.674 69.7974 74.4906 75.9258C70.6947 74.6927 66.6801 71.821 64.6775 68.3555C64.1653 67.155 64.1698 66.0608 64.1778 64.7795L64.1766 64.0982C64.1759 63.3504 64.1783 62.6026 64.1807 61.8548V61.8543L64.1808 61.8398C64.1809 61.3 64.1808 60.7602 64.1806 60.2203C64.1805 59.0584 64.1818 57.8964 64.1843 56.7345C64.1879 55.0545 64.1891 53.3745 64.1896 51.6945C64.1906 48.9687 64.1936 46.2428 64.1978 43.517C64.2019 40.8695 64.205 38.222 64.2069 35.5744L64.209 32.6226C64.2136 25.8304 64.2215 19.0383 64.2314 12.2461Z" fill="white"/>
<path d="M115.75 49.875C115.761 51.9596 115.769 54.0443 115.773 56.1289C115.776 57.0971 115.779 58.0652 115.784 59.0333C115.789 59.9688 115.792 60.9043 115.793 61.8398C115.794 62.1955 115.795 62.5512 115.798 62.9069C115.818 65.9985 115.644 68.6483 113.423 71.0134C111.645 72.685 109.6 74.0219 107.457 75.1743L107.027 75.4057C106.395 75.7337 105.991 75.9258 105.268 75.9258C105.253 73.7212 105.241 71.5166 105.233 69.312C105.23 68.2881 105.225 67.2644 105.218 66.2406C105.21 65.2516 105.206 64.2627 105.205 63.2738C105.203 62.8974 105.201 62.521 105.197 62.1447C105.193 61.6155 105.192 61.0865 105.192 60.5573L105.185 60.0909C105.2 57.7241 106.336 56.3872 107.944 54.7734L108.373 54.322C109.741 52.9864 111.414 52.0705 113.081 51.1576C113.299 51.0383 113.517 50.9191 113.734 50.799C114.11 50.5872 114.48 50.3635 114.848 50.1368C115.094 49.9958 115.207 49.9307 115.329 49.9007C115.434 49.875 115.545 49.875 115.75 49.875Z" fill="white"/>
<path fill-rule="evenodd" clip-rule="evenodd" d="M0 90.1758C0.650837 90.1457 1.30028 90.1237 1.95148 90.1062L2.50904 90.0779C3.03354 90.0674 3.50017 90.0708 4.01446 90.1758C4.33452 90.488 4.47642 90.6265 4.59402 90.7831C4.6877 90.9079 4.76597 91.0442 4.90657 91.2891L5.35262 91.1082L6.0217 90.8438L6.42245 90.6655C7.89001 90.0472 9.23528 89.9391 10.761 90.4402C12.3422 91.1185 13.1265 92.4561 13.8276 93.9609C14.5506 96.4148 14.3252 99.7231 13.1585 101.977C12.2508 103.544 11.1279 104.579 9.36708 105.094C7.83947 105.277 6.59805 105.08 5.12959 104.648C5.14495 105.588 5.16457 106.527 5.18813 107.466C5.19554 107.785 5.20179 108.104 5.20686 108.424C5.21434 108.883 5.22601 109.342 5.23849 109.802L5.25619 110.639C5.27719 111.011 5.28675 111.18 5.35088 111.325C5.40438 111.446 5.49595 111.55 5.66373 111.741C6.06291 112.025 6.46656 112.241 6.9138 112.441V114H1.78421L1.77081 112.093C1.7559 110.015 1.73858 107.937 1.72008 105.859C1.70893 104.6 1.6986 103.34 1.69012 102.08C1.6819 100.864 1.67156 99.6485 1.65974 98.4329C1.65561 97.9688 1.65224 97.5047 1.64965 97.0406C1.64589 96.3912 1.63941 95.742 1.63229 95.0927L1.63083 94.5093L1.62329 93.972L1.61955 93.5068C1.54919 92.9806 1.39758 92.6285 1.11513 92.1797L1.11466 92.1794C0.817534 92.0295 0.676483 91.9584 0.529889 91.9014C0.397478 91.85 0.260548 91.8102 0 91.7344V90.1758ZM10.8159 95.6222C10.4908 94.6318 10.0645 94.0057 9.14406 93.5156C7.59526 93.2536 6.21021 93.6759 5.12959 94.8516C4.88524 95.8773 4.9008 96.8575 4.96134 97.9013C4.98071 98.2268 4.99591 98.5525 5.00708 98.8783C5.03389 99.8379 5.0742 100.795 5.12959 101.754C5.66733 102.043 6.0044 102.198 6.62195 102.251L7.26228 102.241C8.56027 102.232 9.31282 102.007 10.2592 101.086C11.161 99.4095 11.1836 97.4722 10.8159 95.6222Z" fill="white"/>
<path fill-rule="evenodd" clip-rule="evenodd" d="M111.29 91.2891C112.644 92.3944 113.413 93.8165 113.743 95.5195C114.001 98.2461 113.99 101.095 112.182 103.312C110.782 104.679 109.508 105.128 107.596 105.163C105.639 105.103 104.482 104.735 103.042 103.393C101.204 101.249 101.273 98.1767 101.477 95.5195C101.855 93.5315 102.895 92.0521 104.515 90.8577C106.595 89.9287 109.364 90.094 111.29 91.2891ZM108.35 93.3286C109.448 93.7503 109.975 94.6759 110.481 95.6865C110.817 97.4303 110.825 99.273 109.952 100.863C109.273 101.711 108.677 102.138 107.61 102.366C106.543 102.138 105.947 101.711 105.268 100.863C104.438 99.3527 104.3 97.4986 104.753 95.8483C105.426 94.1567 106.393 92.9828 108.35 93.3286Z" fill="white"/>
<path fill-rule="evenodd" clip-rule="evenodd" d="M141.612 91.0403C143.298 91.9609 144.136 93.4288 144.827 95.1855C145.067 96.5226 145.074 97.7635 144.744 99.082H134.485C134.89 99.9675 135.08 100.382 135.356 100.728C135.599 101.032 135.909 101.282 136.492 101.754C137.733 102.167 139.326 102.243 140.566 101.793C140.752 101.688 140.862 101.626 140.968 101.558C141.12 101.461 141.266 101.352 141.618 101.088L141.619 101.088L141.62 101.087L141.62 101.087L141.621 101.086L141.621 101.086L142.513 100.641L144.298 101.977C143.619 103.332 142.702 104.116 141.259 104.607C139.163 105.23 136.942 105.517 134.938 104.484C133.292 103.463 132.418 102.37 131.752 100.543C131.159 97.742 131.507 95.2844 132.978 92.8294C134.973 90.1174 138.703 89.6663 141.612 91.0403ZM142.067 95.5195C141.65 94.5299 141.297 93.9486 140.353 93.4182C138.831 92.7669 137.421 92.8679 135.985 93.6791C134.882 94.486 134.704 95.3202 134.485 96.6328H142.067V95.5195Z" fill="white"/>
<path fill-rule="evenodd" clip-rule="evenodd" d="M25.4154 91.0403C27.1016 91.9609 27.9396 93.4288 28.6309 95.1855C28.8701 96.5226 28.8775 97.7635 28.5473 99.082H18.2881C18.6936 99.9675 18.8834 100.382 19.1596 100.728C19.4027 101.032 19.7126 101.282 20.2953 101.754C21.5364 102.167 23.1292 102.243 24.3699 101.793C24.5558 101.688 24.6655 101.626 24.7717 101.558C24.9243 101.461 25.0696 101.352 25.4236 101.087L25.4242 101.086L25.4248 101.086L26.317 100.641L28.1012 101.977C27.4223 103.332 26.5058 104.116 25.0625 104.607C22.9663 105.23 20.7452 105.517 18.7411 104.484C17.0953 103.463 16.2216 102.37 15.556 100.543C14.9622 97.742 15.3101 95.2844 16.7818 92.8294C18.7763 90.1174 22.5062 89.6663 25.4154 91.0403ZM24.1565 93.4182C25.1003 93.9486 25.4536 94.5299 25.871 95.5195V96.6328H18.2881C18.5073 95.3202 18.6858 94.486 19.7883 93.6791C21.2247 92.8679 22.6341 92.7669 24.1565 93.4182Z" fill="white"/>
<path fill-rule="evenodd" clip-rule="evenodd" d="M66.0156 91.0664C67.2414 92.1069 67.9254 93.4616 68.0595 95.0675C68.1228 96.4142 68.1215 97.7634 68.1203 99.1116L68.1201 99.4071C68.1208 99.9616 68.1269 100.516 68.1335 101.07L68.128 101.587C68.127 101.809 68.1264 101.939 68.1347 102.069C68.1464 102.251 68.1756 102.432 68.2459 102.867C68.4707 103.076 68.578 103.176 68.6953 103.262C68.8022 103.34 68.9177 103.407 69.138 103.535C69.1673 103.967 69.1812 104.172 69.1797 104.377C69.1783 104.561 69.1644 104.745 69.138 105.094C68.5986 105.124 68.0609 105.146 67.5211 105.163L67.0602 105.192H67.0588C66.9013 105.195 66.7991 105.198 66.6972 105.195C66.5097 105.189 66.3229 105.164 65.794 105.094L65.7929 105.094L65.7926 105.094C65.4888 104.786 65.3515 104.647 65.2338 104.493C65.1369 104.367 65.0532 104.23 64.9005 103.98L64.1757 104.412C62.7797 105.243 61.1033 105.356 59.5261 104.983C58.1734 104.458 57.2983 103.464 56.6485 102.199C56.244 100.883 56.1326 99.2523 56.7601 97.9966C57.6075 96.7455 59.0258 96.1329 60.44 95.7422C62.045 95.6171 63.6081 95.6112 65.1235 96.1875C64.9844 95.2174 64.8462 94.4137 64.2593 93.613C63.173 93.1142 62.0611 93.1198 60.886 93.293C60.5689 93.4637 60.4186 93.5446 60.2728 93.633C60.1414 93.7126 60.0137 93.7982 59.7709 93.9609H59.3249L58.8788 94.8516C57.8898 94.5412 57.3458 94.0487 56.6485 93.293C56.9077 92.2868 57.378 91.8612 58.2202 91.3195C60.3957 90.0555 63.7782 89.7599 66.0156 91.0664ZM65.1235 98.6367V100.863C63.3098 101.877 62.6665 102.237 61.9949 102.301C61.6259 102.337 61.2483 102.283 60.6633 102.199L60.663 102.199C60.0709 102.013 59.8561 101.863 59.4782 101.378C59.2397 100.577 59.2915 100.101 59.5479 99.3047C61.0238 97.9605 63.3188 98.2472 65.1235 98.6367Z" fill="white"/>
<path d="M114.635 90.3984H119.542L119.765 91.5117L120.132 91.3247L120.615 91.0803L121.093 90.8377C122.488 90.1747 124.018 90.2269 125.494 90.6211C126.77 91.1038 127.602 92.0164 128.204 93.2238C128.808 94.7193 128.809 96.3149 128.809 97.9048C128.809 98.135 128.809 98.3652 128.811 98.595C128.817 99.0965 128.823 99.5979 128.832 100.099C128.84 100.551 128.844 101.003 128.848 101.455C128.904 102.145 128.96 102.531 129.355 103.09L129.355 103.09L129.356 103.09L129.357 103.091C129.653 103.24 129.794 103.311 129.94 103.368C130.073 103.42 130.21 103.459 130.47 103.535V105.094H125.34L125.315 103.054C125.305 102.399 125.293 101.744 125.282 101.089C125.275 100.635 125.268 100.181 125.263 99.7277C125.256 99.0737 125.244 98.42 125.232 97.7661L125.227 97.1559C125.199 95.9302 125.046 95.0407 124.448 93.9609C123.603 93.3984 123.224 93.4169 122.218 93.5156C121.593 93.7626 121.019 94.0764 120.434 94.4062C120.344 94.4512 120.255 94.4961 120.165 94.541C120.115 94.5663 120.064 94.5917 120.013 94.617C119.957 94.6451 119.901 94.6731 119.845 94.7011C119.744 94.7514 119.643 94.8015 119.542 94.8516C119.552 95.9135 119.567 96.9752 119.588 98.037C119.594 98.3981 119.599 98.7592 119.602 99.1203C119.607 99.64 119.617 100.159 119.629 100.679L119.63 101.167C119.652 101.93 119.711 102.351 120.181 102.966C120.718 103.357 121.117 103.462 121.772 103.535V105.094H116.419L116.386 102.487C116.374 101.656 116.362 100.825 116.349 99.9935C116.34 99.4149 116.332 98.8363 116.325 98.2577C116.315 97.427 116.302 96.5963 116.289 95.7657L116.281 94.9792L116.268 94.2499L116.259 93.6071C116.246 93.3456 116.24 93.1991 116.195 93.0651C116.138 92.8944 116.02 92.7442 115.75 92.4023C115.453 92.2621 115.311 92.1952 115.165 92.138C115.032 92.0857 114.896 92.0415 114.635 91.957V90.3984Z" fill="white"/>
<path d="M79.6202 90.3984H84.5268L84.5442 92.4302C84.5528 93.0838 84.5628 93.7375 84.5731 94.3911C84.5793 94.8433 84.5841 95.2955 84.5872 95.7477C84.592 96.4001 84.6024 97.0521 84.6139 97.7043L84.6147 98.3111C84.6448 99.6196 84.876 100.668 85.6419 101.754C86.3075 102.086 86.825 102.044 87.5437 101.985L87.6491 101.977C88.5356 101.635 89.3135 101.166 90.1024 100.641C90.1731 100.067 90.2015 99.5471 90.1991 98.9724L90.2027 98.4716C90.2041 98.1216 90.2038 97.7716 90.2019 97.4216C90.2 96.8868 90.2064 96.3526 90.2135 95.8179C90.2139 95.4778 90.2137 95.1377 90.2131 94.7976L90.2207 94.314C90.21 93.5468 90.1578 93.1417 89.6808 92.5275C89.2112 92.1803 88.8922 92.0389 88.3182 91.957V90.3984H93.4478L93.4809 92.9485C93.4929 93.7628 93.5057 94.5771 93.5186 95.3914C93.5271 95.9576 93.5349 96.5239 93.5419 97.0902C93.5521 97.9038 93.565 98.7173 93.5785 99.5308L93.5863 100.299L93.5997 101.015L93.6087 101.644C93.6746 102.233 93.7923 102.595 94.1169 103.09L94.1174 103.09L94.1182 103.091C94.4147 103.24 94.5557 103.311 94.7021 103.368C94.8345 103.42 94.9715 103.459 95.232 103.535V105.094H90.3254L90.1024 103.98L89.7356 104.167L89.2521 104.412L88.7738 104.655C87.5214 105.25 86.0723 105.315 84.7271 104.975C83.4142 104.444 82.4747 103.689 81.9001 102.394C81.2369 100.691 81.2556 98.9909 81.2753 97.2029C81.2766 97.0874 81.2779 96.9716 81.279 96.8555C81.2827 96.3266 81.2847 95.7981 81.2812 95.2692C81.2792 94.9431 81.2812 94.6169 81.2879 94.2908C81.2838 93.5372 81.2345 93.1399 80.771 92.5327C80.5428 92.3476 80.4227 92.2501 80.2884 92.1792C80.1393 92.1004 79.9727 92.0543 79.6212 91.9573L79.6204 91.9571L79.6202 91.957V90.3984Z" fill="white"/>
<path d="M52.6341 91.0664V90.3984H55.0874C55.2831 92.5555 55.3379 93.1606 55.1128 93.6326C55.0251 93.8166 54.8948 93.9803 54.7136 94.2079C53.9897 94.6571 53.4916 94.8516 52.6341 94.8516L51.519 93.7383C50.2981 92.9528 49.2521 92.8995 47.839 93.1816L47.5045 93.293L47.2815 95.0742C48.2378 95.749 49.2039 95.9685 50.3099 96.2198C50.3641 96.2322 50.4186 96.2446 50.4735 96.2571C52.3593 96.7219 53.7065 97.192 54.8643 98.8176C55.3444 100.345 55.2046 101.654 54.4906 103.087C53.8235 104.099 52.9668 104.524 51.8535 104.941C49.9192 105.334 47.6748 105.456 45.9433 104.426L45.2464 104.022C44.523 103.473 44.044 102.915 43.49 102.199C44.065 101.61 44.5865 101.098 45.2742 100.641C46.0577 100.668 46.5931 101.155 47.1424 101.654L47.1437 101.655C47.2624 101.763 47.3818 101.872 47.5045 101.977C48.4593 102.545 49.3189 102.538 50.4038 102.422L50.4045 102.422C50.815 102.324 51.0108 102.277 51.1833 102.186C51.3406 102.103 51.4784 101.983 51.742 101.754C51.8911 101.374 51.9653 101.184 51.9929 100.989C52.0202 100.795 52.0017 100.594 51.965 100.195C51.3146 99.2485 50.3507 99.0107 49.3135 98.7549C49.1762 98.721 49.0377 98.6868 48.8984 98.6506C47.0999 98.1831 45.5765 97.6398 44.2706 96.271C43.7856 95.1815 43.7213 94.242 43.9361 93.0703C44.4037 92.0116 45.1276 91.2883 46.1385 90.7324C48.1434 89.9678 50.7333 90.1176 52.6341 91.0664Z" fill="white"/>
<path d="M75.1597 82.6055V90.3984H77.3899V92.1797H75.1597C75.1751 93.2969 75.1947 94.4139 75.2182 95.5309C75.2256 95.9106 75.2319 96.2902 75.237 96.6699C75.2445 97.2172 75.2561 97.7642 75.2686 98.3114L75.2729 98.8218C75.303 99.9168 75.4555 100.936 76.2748 101.754C76.6499 101.806 77.0267 101.846 77.4039 101.879L78.025 101.936L78.5051 101.977C78.7933 102.894 79.0097 103.684 78.9511 104.648C77.8359 105.314 76.6419 105.229 75.3827 105.094C74.0198 104.451 73.0851 103.361 72.5391 101.963C72.0931 100.697 72.0062 99.4951 72.0155 98.1592L72.0165 97.6398C72.0177 97.0954 72.0205 96.551 72.0234 96.0066C72.0245 95.6362 72.0255 95.2658 72.0264 94.8955C72.0289 93.9902 72.0327 93.0849 72.0373 92.1797H70.0301V90.3984H72.0373L71.9913 89.8748C71.7089 86.1936 71.6426 85.3301 71.9392 84.6171C72.0301 84.3985 72.155 84.1942 72.3183 83.9272C73.0464 83.2409 74.1342 82.6055 75.1597 82.6055Z" fill="white"/>
<path d="M29.4394 90.3984H34.346L34.569 91.5117L34.9358 91.3247L35.4193 91.0803L35.8976 90.8377C37.1806 90.2278 38.4966 90.2004 39.8632 90.5585C40.9718 90.9651 41.776 91.3364 42.3749 92.4023C42.457 92.7718 42.5325 93.1429 42.5979 93.5156C42.2466 93.7091 41.893 93.8985 41.5386 94.0862L40.9427 94.4071C40.3155 94.649 40.0835 94.6724 39.4756 94.4062L39.0853 93.947C38.4954 93.4399 38.084 93.3542 37.3093 93.41C36.1966 93.6405 35.3372 93.9945 34.569 94.8516C34.3011 95.9599 34.3032 97.0034 34.3517 98.1378C34.3739 98.665 34.3792 99.1902 34.3817 99.7178C34.388 100.054 34.3952 100.39 34.4035 100.726L34.4107 101.201C34.4472 101.955 34.5221 102.362 34.994 102.963C35.4623 103.313 35.7785 103.453 36.3532 103.535V105.094H31.2236L31.1905 102.544C31.1785 101.729 31.1657 100.915 31.1528 100.101C31.1443 99.5346 31.1365 98.9683 31.1295 98.402C31.1193 97.5884 31.1064 96.7749 31.0929 95.9614L31.0851 95.1931L31.0717 94.4774L31.0627 93.8481C30.9968 93.2589 30.8792 92.8968 30.5545 92.4023L30.554 92.4021C30.2569 92.2522 30.1159 92.181 29.9693 92.1241C29.8369 92.0727 29.7 92.0328 29.4394 91.957V90.3984Z" fill="white"/>
<path d="M98.4798 101.754C98.9234 101.883 99.1104 101.937 99.2728 102.033C99.3912 102.102 99.4965 102.194 99.6786 102.352C99.9943 103.038 100.04 103.457 99.9156 104.203C99.6901 104.469 99.5752 104.605 99.4395 104.715C99.2982 104.829 99.1345 104.916 98.8004 105.094C98.3753 105.087 98.1699 105.083 97.9687 105.053C97.7806 105.024 97.5962 104.972 97.2395 104.871L97.2392 104.871C96.6861 104.043 96.6899 103.625 96.7932 102.645C97.2975 101.839 97.5224 101.754 98.4798 101.754Z" fill="white"/>
</g>
</svg>
