<svg width="41" height="32" viewBox="0 0 41 32" fill="none" xmlns="http://www.w3.org/2000/svg">
<path id="mail" d="M35.2187 0H5.03125C3.69735 0.00152185 2.41851 0.532087 1.4753 1.4753C0.532087 2.41851 0.00152185 3.69735 0 5.03125V26.5937C0.00152185 27.9277 0.532087 29.2065 1.4753 30.1497C2.41851 31.0929 3.69735 31.6235 5.03125 31.625H35.2187C36.5528 31.624 37.8319 31.0936 38.7753 30.1503C39.7186 29.2069 40.249 27.9278 40.25 26.5937V5.03125C40.249 3.69719 39.7186 2.41806 38.7753 1.47474C37.8319 0.531418 36.5528 0.00101527 35.2187 0ZM33.9442 8.32217L21.0067 18.3847C20.7545 18.5805 20.4443 18.6868 20.125 18.6868C19.8057 18.6868 19.4955 18.5805 19.2433 18.3847L6.30583 8.32217C6.15089 8.20854 6.02029 8.06501 5.92176 7.90005C5.82324 7.73509 5.75879 7.55205 5.73221 7.36175C5.70564 7.17145 5.71748 6.97776 5.76705 6.79212C5.81662 6.60648 5.9029 6.43266 6.02079 6.28094C6.13868 6.12921 6.2858 6.00266 6.45344 5.90877C6.62108 5.81487 6.80584 5.75554 6.9968 5.73427C7.18777 5.71301 7.38106 5.73024 7.56524 5.78496C7.74943 5.83968 7.92078 5.93076 8.06917 6.05283L20.125 15.4292L32.1808 6.05283C32.4827 5.83148 32.859 5.7366 33.2297 5.78837C33.6004 5.84014 33.9363 6.03447 34.166 6.33005C34.3957 6.62562 34.501 6.99913 34.4596 7.37115C34.4181 7.74317 34.2332 8.08436 33.9442 8.32217Z" fill="white"/>
</svg>
