<svg width="26" height="36" viewBox="0 0 26 36" fill="none" xmlns="http://www.w3.org/2000/svg">
<path id="medal-icon" d="M21.6 0H14.4V7.3062C16.9764 7.58939 19.4463 8.4903 21.6 9.9324V0ZM10.8 0H3.6V9.9324C5.75367 8.4903 8.22362 7.58939 10.8 7.3062V0ZM12.6 36C15.9417 36 19.1466 34.6725 21.5095 32.3095C23.8725 29.9466 25.2 26.7417 25.2 23.4C25.2 20.0583 23.8725 16.8534 21.5095 14.4905C19.1466 12.1275 15.9417 10.8 12.6 10.8C9.25827 10.8 6.05341 12.1275 3.69045 14.4905C1.3275 16.8534 0 20.0583 0 23.4C0 26.7417 1.3275 29.9466 3.69045 32.3095C6.05341 34.6725 9.25827 36 12.6 36ZM10.395 20.6658L12.6 16.2L14.805 20.6658L19.7334 21.3804L16.1676 24.858L17.01 29.7666L12.6 27.45L8.1918 29.7666L9.0342 24.858L5.4684 21.3804L10.395 20.6658Z" fill="white"/>
</svg>
