<svg width="42" height="36" viewBox="0 0 42 36" fill="none" xmlns="http://www.w3.org/2000/svg">
<g id="person-icon">
<path d="M33.347 9.49841C33.6066 12.0596 33.0447 14.6369 31.7425 16.8575C39.1016 20.4237 41.1425 27.9005 41.1425 31.7298H36.8639C36.8639 31.6378 36.7613 22.5331 27.7078 19.8803L24.2465 18.8642L26.7986 16.3142C27.6314 15.4866 28.2693 14.4839 28.666 13.379C29.0627 12.274 29.2082 11.0945 29.0919 9.92626C28.8395 7.41261 27.3826 5.15139 24.9888 3.56404L27.3527 0C30.8354 2.30828 32.9662 5.68193 33.347 9.49841Z" fill="white"/>
<path d="M25.1017 10.3286C25.1017 15.0479 21.2639 18.8858 16.5446 18.8858C11.8254 18.8858 7.98748 15.0479 7.98748 10.3286C7.98748 5.60937 11.8254 1.7715 16.5446 1.7715C21.2639 1.7715 25.1017 5.60937 25.1017 10.3286Z" fill="white"/>
<path d="M0.5 33.8607C0.5 26.7818 6.25681 21.025 13.3357 21.025H19.7535C26.8324 21.025 32.5892 26.7818 32.5892 33.8607V36H0.5V33.8607Z" fill="white"/>
</g>
</svg>
