<svg width="41" height="41" viewBox="0 0 41 41" fill="none" xmlns="http://www.w3.org/2000/svg">
<path id="phone" d="M32.2444 40.2524C30.4906 40.2524 28.0277 39.618 24.3381 37.5556C19.8531 35.041 16.384 32.718 11.922 28.2675C7.61904 23.9684 5.52604 21.1854 2.59737 15.8551C-0.712708 9.83489 -0.149208 6.68005 0.481375 5.33072C1.23271 3.71689 2.34054 2.7528 3.77421 1.79639C4.58848 1.26337 5.45016 0.806552 6.34829 0.431718L6.59746 0.322468C7.04021 0.121218 7.71487 -0.181615 8.56779 0.142301C9.13704 0.356968 9.64496 0.793968 10.4423 1.5798C12.0753 3.1898 14.3044 6.77397 15.1285 8.5373C15.6805 9.72372 16.0466 10.5076 16.0485 11.3855C16.0485 12.4147 15.531 13.2063 14.9024 14.0631L14.5535 14.5269C13.8712 15.4258 13.7198 15.6846 13.8195 16.1484C14.0188 17.0799 15.5138 19.8533 17.969 22.3047C20.4243 24.7542 23.1172 26.1534 24.0525 26.3527C24.5375 26.4562 24.8 26.301 25.7296 25.5918C25.8619 25.4902 25.998 25.3867 26.1417 25.2813C27.1 24.5683 27.8552 24.0642 28.8595 24.0642H28.8653C29.7393 24.0642 30.4887 24.4437 31.7269 25.0686C33.3445 25.8851 37.038 28.0873 38.6575 29.7203C39.4472 30.5157 39.8842 31.0217 40.1008 31.591C40.4247 32.4477 40.12 33.1185 39.9206 33.567L39.8114 33.8143C39.4337 34.7107 38.9743 35.5704 38.439 36.3826C37.4826 37.8106 36.5147 38.9165 34.9009 39.6678C34.071 40.0609 33.1626 40.2621 32.2444 40.2524Z" fill="white"/>
</svg>
