<svg width="96" height="95" viewBox="0 0 96 95" fill="none" xmlns="http://www.w3.org/2000/svg">
<g id="sni-icon" clip-path="url(#clip0_200_974)">
<path id="Vector" opacity="0.997" fill-rule="evenodd" clip-rule="evenodd" d="M0.703622 0H95.7036V8.63636H0.703622V0ZM87.0673 17.2727H95.7036V77.7273H87.0673V17.2727ZM43.8854 17.2727V77.7273H52.5218V37.424L69.7945 77.7273H78.4309V17.2727H69.7945V57.5752L52.5218 17.2727H43.8854ZM5.0218 17.2727C4.45441 17.2716 3.89238 17.3825 3.36796 17.5991C2.84354 17.8157 2.36706 18.1337 1.96585 18.535C1.56464 18.9362 1.24661 19.4126 1.03001 19.9371C0.8134 20.4615 0.702484 21.0235 0.703622 21.5909V47.5C0.702484 48.0674 0.8134 48.6294 1.03001 49.1538C1.24661 49.6783 1.56464 50.1547 1.96585 50.556C2.36706 50.9572 2.84354 51.2752 3.36796 51.4918C3.89238 51.7084 4.45441 51.8193 5.0218 51.8182H26.6127V69.0909H0.703622V77.7273H30.9309C31.4983 77.7284 32.0603 77.6175 32.5847 77.4009C33.1092 77.1843 33.5856 76.8663 33.9868 76.465C34.3881 76.0638 34.7061 75.5874 34.9227 75.0629C35.1393 74.5385 35.2502 73.9765 35.2491 73.4091V47.5C35.2502 46.9326 35.1393 46.3706 34.9227 45.8462C34.7061 45.3217 34.3881 44.8453 33.9868 44.444C33.5856 44.0428 33.1092 43.7248 32.5847 43.5082C32.0603 43.2916 31.4983 43.1807 30.9309 43.1818H9.33999V25.9091H35.2491V17.2727H5.0218ZM0.703622 86.3636H95.7036V95H0.703622V86.3636Z" fill="#533236"/>
</g>
<defs>
<clipPath id="clip0_200_974">
<rect width="95" height="95" fill="white" transform="translate(0.703613)"/>
</clipPath>
</defs>
</svg>
