<svg width="18" height="15" viewBox="0 0 18 15" fill="none" xmlns="http://www.w3.org/2000/svg">
<path id="twitter-icon" d="M5.67658 14.3933C12.0856 14.3933 15.5922 9.08122 15.5922 4.48388C15.5922 4.33526 15.5922 4.18488 15.586 4.03626C16.2685 3.54186 16.8574 2.92989 17.3252 2.22899C16.6878 2.51019 16.0123 2.69561 15.3207 2.77922C16.0492 2.34364 16.5949 1.65838 16.8563 0.850761C16.1714 1.25626 15.4218 1.54084 14.6404 1.69203C14.1151 1.13253 13.4201 0.76186 12.6628 0.637453C11.9055 0.513045 11.1284 0.641843 10.4517 1.00389C9.77511 1.36594 9.23675 1.94103 8.92009 2.64006C8.60343 3.33909 8.52614 4.12304 8.70019 4.87045C7.31466 4.80091 5.95921 4.44091 4.72176 3.8138C3.48431 3.18669 2.39249 2.30648 1.51711 1.23026C1.07261 1.99794 0.93697 2.90603 1.13775 3.7701C1.33853 4.63417 1.86066 5.38942 2.59811 5.88245C2.04536 5.86364 1.50477 5.71516 1.01996 5.44899V5.49676C1.02092 6.30097 1.29954 7.08019 1.80872 7.70268C2.3179 8.32517 3.0264 8.75275 3.81446 8.91315C3.30242 9.05201 2.76554 9.07288 2.24427 8.97418C2.46678 9.66645 2.9003 10.2718 3.48407 10.7053C4.06784 11.1389 4.77262 11.3789 5.49965 11.3918C4.26452 12.3617 2.73896 12.8876 1.16858 12.8851C0.891855 12.8862 0.615327 12.8703 0.340576 12.8373C1.9346 13.8539 3.78597 14.3938 5.67658 14.3933Z" fill="#130000" fill-opacity="0.8"/>
</svg>
