<svg width="46" height="46" viewBox="0 0 46 46" fill="none" xmlns="http://www.w3.org/2000/svg">
<path d="M45.2876 22.7876C45.2876 35.214 35.214 45.2876 22.7876 45.2876C10.3612 45.2876 0.287598 35.214 0.287598 22.7876C0.287598 10.3612 10.3612 0.287598 22.7876 0.287598C35.214 0.287598 45.2876 10.3612 45.2876 22.7876Z" fill="#23B33A"/>
<path fillRule="evenodd" clipRule="evenodd" d="M33.4415 12.0714C32.0546 10.6751 30.4043 9.56804 28.5863 8.81423C26.7684 8.06043 24.8189 7.6749 22.8509 7.67999C14.5986 7.67999 7.88059 14.3963 7.87725 22.6521C7.87725 25.2906 8.56606 27.8657 9.87529 30.1373L7.75216 37.8943L15.6893 35.8112C17.8848 37.0064 20.3445 37.6331 22.8442 37.6341H22.8509C31.1016 37.6341 37.8196 30.9178 37.8229 22.6621C37.8286 20.6948 37.4443 18.746 36.6922 16.9282C35.9402 15.1104 34.8354 13.4596 33.4415 12.0714ZM22.8509 35.1074H22.8459C20.6169 35.1077 18.4289 34.508 16.5115 33.3712L16.0579 33.101L11.348 34.3368L12.6038 29.7453L12.3086 29.275C11.0624 27.291 10.4027 24.995 10.4057 22.6521C10.409 15.7906 15.9912 10.2084 22.8559 10.2084C24.4908 10.2048 26.1101 10.5254 27.6203 11.1518C29.1304 11.7782 30.5013 12.6979 31.6536 13.8576C32.8121 15.0118 33.7304 16.3842 34.3553 17.8954C34.9802 19.4066 35.2994 21.0267 35.2945 22.6621C35.2911 29.5235 29.709 35.1074 22.8509 35.1074ZM29.6773 25.7859C29.302 25.5974 27.4641 24.6935 27.1205 24.5684C26.7786 24.4433 26.5301 24.3816 26.2799 24.7552C26.0298 25.1288 25.3126 25.971 25.0941 26.2212C24.8756 26.4714 24.6571 26.5014 24.2836 26.3146C23.91 26.1278 22.7041 25.7325 21.2748 24.4583C20.1624 23.466 19.4119 22.2418 19.1934 21.8665C18.9749 21.4913 19.17 21.2894 19.3585 21.1027C19.5269 20.9359 19.7321 20.6657 19.9189 20.4472C20.1057 20.2287 20.1674 20.0736 20.2925 19.8234C20.4176 19.5733 20.3559 19.3548 20.2608 19.168C20.1674 18.9795 19.4185 17.1382 19.1067 16.3894C18.8048 15.6639 18.4962 15.7606 18.2661 15.7506C18.0277 15.7409 17.7892 15.7364 17.5506 15.7373C17.3609 15.7421 17.1742 15.7861 17.0023 15.8664C16.8304 15.9468 16.6769 16.0618 16.5516 16.2042C16.208 16.5795 15.2423 17.4835 15.2423 19.3248C15.2423 21.166 16.5833 22.9456 16.77 23.1958C16.9568 23.4459 19.4085 27.2236 23.1611 28.8447C24.0551 29.23 24.7522 29.4601 25.2943 29.6336C26.1899 29.9188 27.0054 29.8771 27.6509 29.782C28.3697 29.6753 29.8641 28.8781 30.176 28.0041C30.4878 27.1302 30.4878 26.3813 30.3944 26.2245C30.301 26.0678 30.0492 25.9727 29.6773 25.7859Z" fill="white"/>
</svg>
