<svg width="18" height="13" viewBox="0 0 18 13" fill="none" xmlns="http://www.w3.org/2000/svg">
<path id="yt-icon" d="M9.21801 0.527496H9.31178C10.1849 0.53015 14.6065 0.561998 15.7981 0.882246C16.1586 0.98001 16.487 1.1707 16.7506 1.43525C17.0143 1.6998 17.2038 2.02892 17.3003 2.38971C17.4082 2.79311 17.4834 3.32745 17.5338 3.87859L17.5444 3.98918L17.5683 4.26519L17.5772 4.37489C17.6242 5.06663 17.6501 5.75964 17.655 6.45296V6.53258C17.6496 7.26228 17.6207 7.99162 17.5683 8.71946L17.5595 8.83093L17.5506 8.94063C17.4976 9.54839 17.4179 10.1517 17.3003 10.5949C17.2041 10.9559 17.0147 11.2852 16.751 11.5498C16.4874 11.8144 16.1587 12.005 15.7981 12.1024C14.5667 12.4333 9.88681 12.4563 9.23747 12.458H9.08708C8.75975 12.458 7.40268 12.4518 5.98015 12.4032L5.79968 12.3961L5.70679 12.3926L5.52543 12.3846L5.34408 12.3775C4.16571 12.3253 3.04396 12.2413 2.52643 12.1015C2.16597 12.0041 1.83746 11.8136 1.57381 11.5492C1.31017 11.2848 1.12066 10.9557 1.02427 10.5949C0.906615 10.1526 0.82788 9.54839 0.7748 8.94063L0.765953 8.83004L0.757107 8.71946C0.704838 8.00018 0.675924 7.27939 0.67041 6.55823V6.4273C0.673064 6.19906 0.681026 5.40994 0.738529 4.53944L0.746491 4.43062L0.749145 4.37489L0.757992 4.26519L0.780993 3.98829L0.791609 3.87859C0.842919 3.32745 0.918115 2.79223 1.02516 2.38971C1.12148 2.0287 1.31107 1.69937 1.57488 1.43477C1.8387 1.17018 2.16747 0.97963 2.5282 0.882246C3.04573 0.744238 4.16748 0.659311 5.34585 0.606231L5.52632 0.599154L5.70856 0.592961L5.80056 0.589422L5.98192 0.582345C6.9922 0.549613 8.00248 0.53192 9.01365 0.528381H9.21889V0.526611L9.21801 0.527496ZM7.46461 3.93344V9.04856L11.8782 6.49188L7.46461 3.93344Z" fill="#130000" fill-opacity="0.8"/>
</svg>
